<mxfile host="app.diagrams.net" modified="2023-10-24T06:34:29.346Z" agent="Mozilla/5.0 (X11; Ubuntu; Linux x86_64; rv:109.0) Gecko/20100101 Firefox/119.0" etag="YCcl77lqJI34bpu6Y0HR" version="22.0.6" type="google" pages="4">
  <diagram name="Cas d&#39;utilisation" id="VHXien45f1KX8Zx-jsjJ">
    <mxGraphModel dx="1434" dy="797" grid="1" gridSize="10" guides="1" tooltips="1" connect="1" arrows="1" fold="1" page="1" pageScale="1" pageWidth="827" pageHeight="1169" math="0" shadow="0">
      <root>
        <mxCell id="0" />
        <mxCell id="1" parent="0" />
        <mxCell id="7_obwbhdIAsgRjPfOjju-1" value="Pompier" style="shape=umlActor;verticalLabelPosition=bottom;verticalAlign=top;html=1;outlineConnect=0;" parent="1" vertex="1">
          <mxGeometry x="60" y="255" width="70" height="140" as="geometry" />
        </mxCell>
        <mxCell id="R0H3yH_AfiAj4ty1ME0v-1" value="Admin" style="shape=umlActor;verticalLabelPosition=bottom;verticalAlign=top;html=1;outlineConnect=0;" parent="1" vertex="1">
          <mxGeometry x="60" y="600" width="70" height="140" as="geometry" />
        </mxCell>
        <mxCell id="R0H3yH_AfiAj4ty1ME0v-3" value="Text" style="text;html=1;strokeColor=none;fillColor=none;align=center;verticalAlign=middle;whiteSpace=wrap;rounded=0;" parent="1" vertex="1">
          <mxGeometry x="414" y="235" width="60" height="30" as="geometry" />
        </mxCell>
        <mxCell id="_afQoSZlzshs0_Bqq0BC-2" value="" style="rounded=0;whiteSpace=wrap;html=1;rotation=90;" parent="1" vertex="1">
          <mxGeometry x="28.5" y="198" width="831" height="525" as="geometry" />
        </mxCell>
        <mxCell id="R0H3yH_AfiAj4ty1ME0v-4" value="&lt;b&gt;&lt;u&gt;&lt;font style=&quot;font-size: 16px;&quot;&gt;APP Pompier 45&lt;/font&gt;&lt;/u&gt;&lt;/b&gt;" style="text;html=1;strokeColor=none;fillColor=none;align=center;verticalAlign=middle;whiteSpace=wrap;rounded=0;" parent="1" vertex="1">
          <mxGeometry x="335" y="60" width="176" height="30" as="geometry" />
        </mxCell>
        <mxCell id="R0H3yH_AfiAj4ty1ME0v-5" value="serveur de donner" style="shape=umlActor;verticalLabelPosition=bottom;verticalAlign=top;html=1;outlineConnect=0;" parent="1" vertex="1">
          <mxGeometry x="740" y="405" width="70" height="140" as="geometry" />
        </mxCell>
        <mxCell id="R0H3yH_AfiAj4ty1ME0v-6" value="Se connecter" style="ellipse;whiteSpace=wrap;html=1;" parent="1" vertex="1">
          <mxGeometry x="352" y="170" width="156" height="70" as="geometry" />
        </mxCell>
        <mxCell id="_afQoSZlzshs0_Bqq0BC-4" value="Consulter les consultations " style="ellipse;whiteSpace=wrap;html=1;" parent="1" vertex="1">
          <mxGeometry x="335" y="750" width="190" height="60" as="geometry" />
        </mxCell>
        <mxCell id="R0H3yH_AfiAj4ty1ME0v-7" value="Rechercher un fichier" style="ellipse;whiteSpace=wrap;html=1;" parent="1" vertex="1">
          <mxGeometry x="348" y="245" width="156" height="70" as="geometry" />
        </mxCell>
        <mxCell id="R0H3yH_AfiAj4ty1ME0v-8" value="consulter l&#39;historique rÃ©cent" style="ellipse;whiteSpace=wrap;html=1;" parent="1" vertex="1">
          <mxGeometry x="348" y="325" width="156" height="70" as="geometry" />
        </mxCell>
        <mxCell id="R0H3yH_AfiAj4ty1ME0v-9" value="Gerer Favoris" style="ellipse;whiteSpace=wrap;html=1;" parent="1" vertex="1">
          <mxGeometry x="348" y="405" width="156" height="70" as="geometry" />
        </mxCell>
        <mxCell id="R0H3yH_AfiAj4ty1ME0v-10" value="Gerer profil" style="ellipse;whiteSpace=wrap;html=1;" parent="1" vertex="1">
          <mxGeometry x="348" y="475" width="156" height="70" as="geometry" />
        </mxCell>
        <mxCell id="_afQoSZlzshs0_Bqq0BC-6" value="" style="endArrow=none;html=1;rounded=0;entryX=0;entryY=0.5;entryDx=0;entryDy=0;" parent="1" source="7_obwbhdIAsgRjPfOjju-1" target="R0H3yH_AfiAj4ty1ME0v-6" edge="1">
          <mxGeometry width="50" height="50" relative="1" as="geometry">
            <mxPoint x="390" y="450" as="sourcePoint" />
            <mxPoint x="440" y="400" as="targetPoint" />
          </mxGeometry>
        </mxCell>
        <mxCell id="_afQoSZlzshs0_Bqq0BC-9" value="" style="endArrow=none;html=1;rounded=0;entryX=0;entryY=0.5;entryDx=0;entryDy=0;" parent="1" source="7_obwbhdIAsgRjPfOjju-1" target="R0H3yH_AfiAj4ty1ME0v-7" edge="1">
          <mxGeometry width="50" height="50" relative="1" as="geometry">
            <mxPoint x="140" y="260" as="sourcePoint" />
            <mxPoint x="364" y="260" as="targetPoint" />
          </mxGeometry>
        </mxCell>
        <mxCell id="R0H3yH_AfiAj4ty1ME0v-11" value="Gerer la suppression, ajout et modification des pompier" style="shape=note2;boundedLbl=1;whiteSpace=wrap;html=1;size=25;verticalAlign=top;align=center;" parent="1" vertex="1">
          <mxGeometry x="630" y="700" width="160" height="60" as="geometry" />
        </mxCell>
        <mxCell id="R0H3yH_AfiAj4ty1ME0v-12" value="administrer les profils" style="resizeWidth=1;part=1;strokeColor=none;fillColor=none;align=left;spacingLeft=5;" parent="R0H3yH_AfiAj4ty1ME0v-11" vertex="1">
          <mxGeometry width="160" height="25" relative="1" as="geometry" />
        </mxCell>
        <mxCell id="_afQoSZlzshs0_Bqq0BC-11" value="" style="endArrow=none;html=1;rounded=0;entryX=0;entryY=0.5;entryDx=0;entryDy=0;" parent="1" source="7_obwbhdIAsgRjPfOjju-1" target="R0H3yH_AfiAj4ty1ME0v-9" edge="1">
          <mxGeometry width="50" height="50" relative="1" as="geometry">
            <mxPoint x="160" y="280" as="sourcePoint" />
            <mxPoint x="384" y="280" as="targetPoint" />
          </mxGeometry>
        </mxCell>
        <mxCell id="R0H3yH_AfiAj4ty1ME0v-13" value="" style="endArrow=none;dashed=1;html=1;dashPattern=1 3;strokeWidth=2;rounded=0;exitX=1;exitY=0.5;exitDx=0;exitDy=0;entryX=-0.006;entryY=0.783;entryDx=0;entryDy=0;entryPerimeter=0;" parent="1" source="_afQoSZlzshs0_Bqq0BC-5" target="R0H3yH_AfiAj4ty1ME0v-11" edge="1">
          <mxGeometry width="50" height="50" relative="1" as="geometry">
            <mxPoint x="560" y="595" as="sourcePoint" />
            <mxPoint x="610" y="545" as="targetPoint" />
          </mxGeometry>
        </mxCell>
        <mxCell id="_afQoSZlzshs0_Bqq0BC-5" value="Administrer les profils " style="ellipse;whiteSpace=wrap;html=1;" parent="1" vertex="1">
          <mxGeometry x="333" y="600" width="190" height="60" as="geometry" />
        </mxCell>
        <mxCell id="_afQoSZlzshs0_Bqq0BC-13" value="" style="endArrow=none;html=1;rounded=0;exitX=1;exitY=0.5;exitDx=0;exitDy=0;" parent="1" source="R0H3yH_AfiAj4ty1ME0v-6" target="R0H3yH_AfiAj4ty1ME0v-5" edge="1">
          <mxGeometry width="50" height="50" relative="1" as="geometry">
            <mxPoint x="140" y="319" as="sourcePoint" />
            <mxPoint x="362" y="215" as="targetPoint" />
          </mxGeometry>
        </mxCell>
        <mxCell id="_afQoSZlzshs0_Bqq0BC-10" value="" style="endArrow=none;html=1;rounded=0;entryX=0;entryY=0.5;entryDx=0;entryDy=0;" parent="1" source="7_obwbhdIAsgRjPfOjju-1" target="R0H3yH_AfiAj4ty1ME0v-8" edge="1">
          <mxGeometry width="50" height="50" relative="1" as="geometry">
            <mxPoint x="150" y="270" as="sourcePoint" />
            <mxPoint x="374" y="270" as="targetPoint" />
          </mxGeometry>
        </mxCell>
        <mxCell id="_afQoSZlzshs0_Bqq0BC-14" value="" style="endArrow=none;html=1;rounded=0;exitX=1;exitY=0.5;exitDx=0;exitDy=0;" parent="1" source="R0H3yH_AfiAj4ty1ME0v-7" target="R0H3yH_AfiAj4ty1ME0v-5" edge="1">
          <mxGeometry width="50" height="50" relative="1" as="geometry">
            <mxPoint x="150" y="329" as="sourcePoint" />
            <mxPoint x="372" y="225" as="targetPoint" />
          </mxGeometry>
        </mxCell>
        <mxCell id="_afQoSZlzshs0_Bqq0BC-12" value="" style="endArrow=none;html=1;rounded=0;entryX=0;entryY=0.5;entryDx=0;entryDy=0;" parent="1" source="7_obwbhdIAsgRjPfOjju-1" target="R0H3yH_AfiAj4ty1ME0v-10" edge="1">
          <mxGeometry width="50" height="50" relative="1" as="geometry">
            <mxPoint x="170" y="290" as="sourcePoint" />
            <mxPoint x="394" y="290" as="targetPoint" />
          </mxGeometry>
        </mxCell>
        <mxCell id="_afQoSZlzshs0_Bqq0BC-15" value="" style="endArrow=none;html=1;rounded=0;exitX=1;exitY=0.5;exitDx=0;exitDy=0;" parent="1" source="R0H3yH_AfiAj4ty1ME0v-8" target="R0H3yH_AfiAj4ty1ME0v-5" edge="1">
          <mxGeometry width="50" height="50" relative="1" as="geometry">
            <mxPoint x="160" y="339" as="sourcePoint" />
            <mxPoint x="382" y="235" as="targetPoint" />
          </mxGeometry>
        </mxCell>
        <mxCell id="_afQoSZlzshs0_Bqq0BC-16" value="" style="endArrow=none;html=1;rounded=0;exitX=1;exitY=0.5;exitDx=0;exitDy=0;" parent="1" source="R0H3yH_AfiAj4ty1ME0v-9" target="R0H3yH_AfiAj4ty1ME0v-5" edge="1">
          <mxGeometry width="50" height="50" relative="1" as="geometry">
            <mxPoint x="170" y="349" as="sourcePoint" />
            <mxPoint x="392" y="245" as="targetPoint" />
          </mxGeometry>
        </mxCell>
        <mxCell id="_afQoSZlzshs0_Bqq0BC-17" value="" style="endArrow=none;html=1;rounded=0;exitX=1;exitY=0.5;exitDx=0;exitDy=0;" parent="1" source="R0H3yH_AfiAj4ty1ME0v-10" target="R0H3yH_AfiAj4ty1ME0v-5" edge="1">
          <mxGeometry width="50" height="50" relative="1" as="geometry">
            <mxPoint x="180" y="359" as="sourcePoint" />
            <mxPoint x="402" y="255" as="targetPoint" />
          </mxGeometry>
        </mxCell>
        <mxCell id="_afQoSZlzshs0_Bqq0BC-18" value="Administrer les fichiers" style="ellipse;whiteSpace=wrap;html=1;" parent="1" vertex="1">
          <mxGeometry x="335" y="670" width="190" height="60" as="geometry" />
        </mxCell>
        <mxCell id="_afQoSZlzshs0_Bqq0BC-19" value="" style="endArrow=none;html=1;rounded=0;entryX=0;entryY=0.5;entryDx=0;entryDy=0;" parent="1" source="R0H3yH_AfiAj4ty1ME0v-1" target="_afQoSZlzshs0_Bqq0BC-5" edge="1">
          <mxGeometry width="50" height="50" relative="1" as="geometry">
            <mxPoint x="140" y="361" as="sourcePoint" />
            <mxPoint x="358" y="520" as="targetPoint" />
          </mxGeometry>
        </mxCell>
        <mxCell id="_afQoSZlzshs0_Bqq0BC-20" value="" style="endArrow=none;html=1;rounded=0;entryX=0;entryY=0.5;entryDx=0;entryDy=0;" parent="1" source="R0H3yH_AfiAj4ty1ME0v-1" target="_afQoSZlzshs0_Bqq0BC-18" edge="1">
          <mxGeometry width="50" height="50" relative="1" as="geometry">
            <mxPoint x="150" y="371" as="sourcePoint" />
            <mxPoint x="368" y="530" as="targetPoint" />
          </mxGeometry>
        </mxCell>
        <mxCell id="R0H3yH_AfiAj4ty1ME0v-16" value="" style="endArrow=none;html=1;rounded=0;entryX=1;entryY=0.5;entryDx=0;entryDy=0;" parent="1" source="R0H3yH_AfiAj4ty1ME0v-5" target="_afQoSZlzshs0_Bqq0BC-5" edge="1">
          <mxGeometry width="50" height="50" relative="1" as="geometry">
            <mxPoint x="560" y="610" as="sourcePoint" />
            <mxPoint x="610" y="560" as="targetPoint" />
          </mxGeometry>
        </mxCell>
        <mxCell id="_afQoSZlzshs0_Bqq0BC-21" value="" style="endArrow=none;html=1;rounded=0;entryX=0;entryY=0.5;entryDx=0;entryDy=0;" parent="1" source="R0H3yH_AfiAj4ty1ME0v-1" target="_afQoSZlzshs0_Bqq0BC-4" edge="1">
          <mxGeometry width="50" height="50" relative="1" as="geometry">
            <mxPoint x="160" y="381" as="sourcePoint" />
            <mxPoint x="378" y="540" as="targetPoint" />
          </mxGeometry>
        </mxCell>
        <mxCell id="_afQoSZlzshs0_Bqq0BC-22" value="" style="endArrow=none;html=1;rounded=0;exitX=1;exitY=0.5;exitDx=0;exitDy=0;" parent="1" source="_afQoSZlzshs0_Bqq0BC-18" target="R0H3yH_AfiAj4ty1ME0v-5" edge="1">
          <mxGeometry width="50" height="50" relative="1" as="geometry">
            <mxPoint x="170" y="391" as="sourcePoint" />
            <mxPoint x="388" y="550" as="targetPoint" />
          </mxGeometry>
        </mxCell>
        <mxCell id="_afQoSZlzshs0_Bqq0BC-23" value="" style="endArrow=none;html=1;rounded=0;exitX=1;exitY=0.5;exitDx=0;exitDy=0;" parent="1" source="_afQoSZlzshs0_Bqq0BC-4" target="R0H3yH_AfiAj4ty1ME0v-5" edge="1">
          <mxGeometry width="50" height="50" relative="1" as="geometry">
            <mxPoint x="180" y="401" as="sourcePoint" />
            <mxPoint x="398" y="560" as="targetPoint" />
          </mxGeometry>
        </mxCell>
        <mxCell id="_afQoSZlzshs0_Bqq0BC-26" value="" style="endArrow=open;html=1;rounded=0;endFill=0;" parent="1" source="R0H3yH_AfiAj4ty1ME0v-1" target="7_obwbhdIAsgRjPfOjju-1" edge="1">
          <mxGeometry width="50" height="50" relative="1" as="geometry">
            <mxPoint x="500" y="420" as="sourcePoint" />
            <mxPoint x="550" y="370" as="targetPoint" />
          </mxGeometry>
        </mxCell>
        <mxCell id="_afQoSZlzshs0_Bqq0BC-27" value="Pompier" style="shape=umlActor;verticalLabelPosition=bottom;verticalAlign=top;html=1;outlineConnect=0;" parent="1" vertex="1">
          <mxGeometry x="951.5" y="255" width="70" height="140" as="geometry" />
        </mxCell>
        <mxCell id="_afQoSZlzshs0_Bqq0BC-28" value="Admin" style="shape=umlActor;verticalLabelPosition=bottom;verticalAlign=top;html=1;outlineConnect=0;" parent="1" vertex="1">
          <mxGeometry x="940" y="1005" width="70" height="140" as="geometry" />
        </mxCell>
        <mxCell id="_afQoSZlzshs0_Bqq0BC-29" value="Text" style="text;html=1;strokeColor=none;fillColor=none;align=center;verticalAlign=middle;whiteSpace=wrap;rounded=0;" parent="1" vertex="1">
          <mxGeometry x="1305.5" y="235" width="60" height="30" as="geometry" />
        </mxCell>
        <mxCell id="_afQoSZlzshs0_Bqq0BC-30" value="" style="rounded=0;whiteSpace=wrap;html=1;rotation=90;" parent="1" vertex="1">
          <mxGeometry x="670.89" y="443.37" width="1496.96" height="692.72" as="geometry" />
        </mxCell>
        <mxCell id="_afQoSZlzshs0_Bqq0BC-31" value="&lt;b&gt;&lt;u&gt;&lt;font style=&quot;font-size: 16px;&quot;&gt;APP Pompier 45&lt;/font&gt;&lt;/u&gt;&lt;/b&gt;" style="text;html=1;strokeColor=none;fillColor=none;align=center;verticalAlign=middle;whiteSpace=wrap;rounded=0;" parent="1" vertex="1">
          <mxGeometry x="1305.5" y="60" width="176" height="30" as="geometry" />
        </mxCell>
        <mxCell id="_afQoSZlzshs0_Bqq0BC-32" value="Serveur de stockage" style="shape=umlActor;verticalLabelPosition=bottom;verticalAlign=top;html=1;outlineConnect=0;" parent="1" vertex="1">
          <mxGeometry x="1820" y="610" width="70" height="140" as="geometry" />
        </mxCell>
        <mxCell id="_afQoSZlzshs0_Bqq0BC-60" value="" style="endArrow=open;html=1;rounded=0;endFill=0;" parent="1" source="_afQoSZlzshs0_Bqq0BC-28" target="_afQoSZlzshs0_Bqq0BC-27" edge="1">
          <mxGeometry width="50" height="50" relative="1" as="geometry">
            <mxPoint x="1391.5" y="420" as="sourcePoint" />
            <mxPoint x="1441.5" y="370" as="targetPoint" />
          </mxGeometry>
        </mxCell>
        <mxCell id="_afQoSZlzshs0_Bqq0BC-61" value="&lt;b&gt;&lt;font style=&quot;font-size: 18px;&quot;&gt;Cas d&#39;utilisation simple &lt;/font&gt;&lt;/b&gt;" style="text;html=1;strokeColor=none;fillColor=none;align=center;verticalAlign=middle;whiteSpace=wrap;rounded=0;" parent="1" vertex="1">
          <mxGeometry x="313" y="10" width="234" height="30" as="geometry" />
        </mxCell>
        <mxCell id="_afQoSZlzshs0_Bqq0BC-62" value="&lt;b&gt;&lt;font style=&quot;font-size: 18px;&quot;&gt;Cas d&#39;utilisation complet &lt;/font&gt;&lt;/b&gt;" style="text;html=1;strokeColor=none;fillColor=none;align=center;verticalAlign=middle;whiteSpace=wrap;rounded=0;" parent="1" vertex="1">
          <mxGeometry x="1276.75" width="234" height="30" as="geometry" />
        </mxCell>
        <mxCell id="_afQoSZlzshs0_Bqq0BC-63" style="edgeStyle=orthogonalEdgeStyle;rounded=0;orthogonalLoop=1;jettySize=auto;html=1;exitX=0.5;exitY=1;exitDx=0;exitDy=0;" parent="1" source="_afQoSZlzshs0_Bqq0BC-31" target="_afQoSZlzshs0_Bqq0BC-31" edge="1">
          <mxGeometry relative="1" as="geometry" />
        </mxCell>
        <mxCell id="_afQoSZlzshs0_Bqq0BC-64" value="Se connecter" style="ellipse;whiteSpace=wrap;html=1;" parent="1" vertex="1">
          <mxGeometry x="1526.5" y="80" width="116" height="50" as="geometry" />
        </mxCell>
        <mxCell id="R0H3yH_AfiAj4ty1ME0v-19" value="Gerer les Profils" style="ellipse;whiteSpace=wrap;html=1;" parent="1" vertex="1">
          <mxGeometry x="1314.6399999999999" y="860" width="170" height="70" as="geometry" />
        </mxCell>
        <mxCell id="_afQoSZlzshs0_Bqq0BC-66" value="GÃ©rer son profil" style="ellipse;whiteSpace=wrap;html=1;" parent="1" vertex="1">
          <mxGeometry x="1484.64" y="148" width="116" height="50" as="geometry" />
        </mxCell>
        <mxCell id="R0H3yH_AfiAj4ty1ME0v-20" value="Ajouter Pompier" style="ellipse;whiteSpace=wrap;html=1;" parent="1" vertex="1">
          <mxGeometry x="1211.3899999999999" y="950" width="110" height="70" as="geometry" />
        </mxCell>
        <mxCell id="R0H3yH_AfiAj4ty1ME0v-21" value="Modifier Pompier" style="ellipse;whiteSpace=wrap;html=1;" parent="1" vertex="1">
          <mxGeometry x="1344.6399999999999" y="950" width="110" height="70" as="geometry" />
        </mxCell>
        <mxCell id="R0H3yH_AfiAj4ty1ME0v-22" value="Supprimer Pompier" style="ellipse;whiteSpace=wrap;html=1;" parent="1" vertex="1">
          <mxGeometry x="1464.6399999999999" y="935" width="110" height="70" as="geometry" />
        </mxCell>
        <mxCell id="_afQoSZlzshs0_Bqq0BC-67" value="Rechercher un fichier" style="ellipse;whiteSpace=wrap;html=1;" parent="1" vertex="1">
          <mxGeometry x="1440" y="225" width="116" height="50" as="geometry" />
        </mxCell>
        <mxCell id="R0H3yH_AfiAj4ty1ME0v-23" value="" style="endArrow=block;html=1;rounded=0;exitX=0.5;exitY=0;exitDx=0;exitDy=0;entryX=0;entryY=1;entryDx=0;entryDy=0;endFill=0;" parent="1" source="R0H3yH_AfiAj4ty1ME0v-20" target="R0H3yH_AfiAj4ty1ME0v-19" edge="1">
          <mxGeometry width="50" height="50" relative="1" as="geometry">
            <mxPoint x="1490" y="560" as="sourcePoint" />
            <mxPoint x="1540" y="510" as="targetPoint" />
          </mxGeometry>
        </mxCell>
        <mxCell id="R0H3yH_AfiAj4ty1ME0v-24" value="" style="endArrow=block;html=1;rounded=0;exitX=0.5;exitY=0;exitDx=0;exitDy=0;entryX=0.5;entryY=1;entryDx=0;entryDy=0;endFill=0;" parent="1" source="R0H3yH_AfiAj4ty1ME0v-21" target="R0H3yH_AfiAj4ty1ME0v-19" edge="1">
          <mxGeometry width="50" height="50" relative="1" as="geometry">
            <mxPoint x="1261" y="720" as="sourcePoint" />
            <mxPoint x="1305" y="690" as="targetPoint" />
          </mxGeometry>
        </mxCell>
        <mxCell id="_afQoSZlzshs0_Bqq0BC-68" value="Consulter un fichier " style="ellipse;whiteSpace=wrap;html=1;" parent="1" vertex="1">
          <mxGeometry x="1338.64" y="443.37" width="116" height="50" as="geometry" />
        </mxCell>
        <mxCell id="R0H3yH_AfiAj4ty1ME0v-25" value="" style="endArrow=block;html=1;rounded=0;exitX=0.5;exitY=0;exitDx=0;exitDy=0;entryX=0.894;entryY=0.786;entryDx=0;entryDy=0;endFill=0;entryPerimeter=0;" parent="1" source="R0H3yH_AfiAj4ty1ME0v-22" target="R0H3yH_AfiAj4ty1ME0v-19" edge="1">
          <mxGeometry width="50" height="50" relative="1" as="geometry">
            <mxPoint x="1271" y="730" as="sourcePoint" />
            <mxPoint x="1315" y="700" as="targetPoint" />
          </mxGeometry>
        </mxCell>
        <mxCell id="R0H3yH_AfiAj4ty1ME0v-26" value="" style="endArrow=none;html=1;rounded=0;entryX=0;entryY=0.5;entryDx=0;entryDy=0;" parent="1" source="_afQoSZlzshs0_Bqq0BC-28" target="R0H3yH_AfiAj4ty1ME0v-19" edge="1">
          <mxGeometry width="50" height="50" relative="1" as="geometry">
            <mxPoint x="1490" y="560" as="sourcePoint" />
            <mxPoint x="1540" y="510" as="targetPoint" />
          </mxGeometry>
        </mxCell>
        <mxCell id="R0H3yH_AfiAj4ty1ME0v-27" value="" style="endArrow=none;html=1;rounded=0;exitX=1.029;exitY=0.414;exitDx=0;exitDy=0;exitPerimeter=0;" parent="1" source="R0H3yH_AfiAj4ty1ME0v-19" target="_afQoSZlzshs0_Bqq0BC-32" edge="1">
          <mxGeometry width="50" height="50" relative="1" as="geometry">
            <mxPoint x="1032" y="678" as="sourcePoint" />
            <mxPoint x="1280" y="665" as="targetPoint" />
          </mxGeometry>
        </mxCell>
        <mxCell id="R0H3yH_AfiAj4ty1ME0v-28" value="Gerer les Fichiers" style="ellipse;whiteSpace=wrap;html=1;" parent="1" vertex="1">
          <mxGeometry x="1326.3899999999999" y="1020" width="170" height="70" as="geometry" />
        </mxCell>
        <mxCell id="_afQoSZlzshs0_Bqq0BC-69" value="Ajouter un onglet" style="ellipse;whiteSpace=wrap;html=1;" parent="1" vertex="1">
          <mxGeometry x="1133.39" y="330" width="116" height="50" as="geometry" />
        </mxCell>
        <mxCell id="_afQoSZlzshs0_Bqq0BC-70" value="TÃ©lÃ©charger un fichier" style="ellipse;whiteSpace=wrap;html=1;" parent="1" vertex="1">
          <mxGeometry x="1305.5" y="315" width="116" height="50" as="geometry" />
        </mxCell>
        <mxCell id="_afQoSZlzshs0_Bqq0BC-71" value="Signaler un fichier" style="ellipse;whiteSpace=wrap;html=1;" parent="1" vertex="1">
          <mxGeometry x="1494" y="380" width="116" height="50" as="geometry" />
        </mxCell>
        <mxCell id="R0H3yH_AfiAj4ty1ME0v-32" value="" style="endArrow=block;html=1;rounded=0;exitX=0.5;exitY=0;exitDx=0;exitDy=0;entryX=0;entryY=1;entryDx=0;entryDy=0;endFill=0;" parent="1" source="R0H3yH_AfiAj4ty1ME0v-29" target="R0H3yH_AfiAj4ty1ME0v-28" edge="1">
          <mxGeometry width="50" height="50" relative="1" as="geometry">
            <mxPoint x="1500" y="730" as="sourcePoint" />
            <mxPoint x="1550" y="680" as="targetPoint" />
          </mxGeometry>
        </mxCell>
        <mxCell id="R0H3yH_AfiAj4ty1ME0v-33" value="" style="endArrow=block;html=1;rounded=0;exitX=0.5;exitY=0;exitDx=0;exitDy=0;entryX=0.5;entryY=1;entryDx=0;entryDy=0;endFill=0;" parent="1" source="R0H3yH_AfiAj4ty1ME0v-30" target="R0H3yH_AfiAj4ty1ME0v-28" edge="1">
          <mxGeometry width="50" height="50" relative="1" as="geometry">
            <mxPoint x="1271" y="890" as="sourcePoint" />
            <mxPoint x="1315" y="860" as="targetPoint" />
          </mxGeometry>
        </mxCell>
        <mxCell id="R0H3yH_AfiAj4ty1ME0v-34" value="" style="endArrow=block;html=1;rounded=0;exitX=0.5;exitY=0;exitDx=0;exitDy=0;entryX=0.894;entryY=0.786;entryDx=0;entryDy=0;endFill=0;entryPerimeter=0;" parent="1" source="R0H3yH_AfiAj4ty1ME0v-31" target="R0H3yH_AfiAj4ty1ME0v-28" edge="1">
          <mxGeometry width="50" height="50" relative="1" as="geometry">
            <mxPoint x="1281" y="900" as="sourcePoint" />
            <mxPoint x="1325" y="870" as="targetPoint" />
          </mxGeometry>
        </mxCell>
        <mxCell id="R0H3yH_AfiAj4ty1ME0v-30" value="&lt;div&gt;&lt;br&gt;&lt;/div&gt;&lt;div&gt;Changer de Version &lt;br&gt;&lt;/div&gt;&lt;div&gt;Ficher&lt;br&gt;&lt;/div&gt;" style="ellipse;whiteSpace=wrap;html=1;" parent="1" vertex="1">
          <mxGeometry x="1354.6399999999999" y="1120" width="110" height="70" as="geometry" />
        </mxCell>
        <mxCell id="R0H3yH_AfiAj4ty1ME0v-35" value="" style="endArrow=none;html=1;rounded=0;exitX=0;exitY=0.5;exitDx=0;exitDy=0;" parent="1" source="R0H3yH_AfiAj4ty1ME0v-28" target="_afQoSZlzshs0_Bqq0BC-28" edge="1">
          <mxGeometry width="50" height="50" relative="1" as="geometry">
            <mxPoint x="1490" y="680" as="sourcePoint" />
            <mxPoint x="1540" y="630" as="targetPoint" />
          </mxGeometry>
        </mxCell>
        <mxCell id="R0H3yH_AfiAj4ty1ME0v-36" value="" style="endArrow=none;html=1;rounded=0;exitX=1;exitY=0.5;exitDx=0;exitDy=0;" parent="1" source="R0H3yH_AfiAj4ty1ME0v-28" target="_afQoSZlzshs0_Bqq0BC-32" edge="1">
          <mxGeometry width="50" height="50" relative="1" as="geometry">
            <mxPoint x="1032" y="678" as="sourcePoint" />
            <mxPoint x="1280" y="665" as="targetPoint" />
          </mxGeometry>
        </mxCell>
        <mxCell id="R0H3yH_AfiAj4ty1ME0v-37" value="Consulter l&#39;Ã©tat des consultations" style="ellipse;whiteSpace=wrap;html=1;" parent="1" vertex="1">
          <mxGeometry x="1312.7499999999998" y="1390" width="234.5" height="70" as="geometry" />
        </mxCell>
        <mxCell id="_afQoSZlzshs0_Bqq0BC-73" value="Consulter l&#39;historique des versions&amp;nbsp; " style="ellipse;whiteSpace=wrap;html=1;" parent="1" vertex="1">
          <mxGeometry x="1538" y="460" width="116" height="50" as="geometry" />
        </mxCell>
        <mxCell id="R0H3yH_AfiAj4ty1ME0v-29" value="Ajouter Ficher" style="ellipse;whiteSpace=wrap;html=1;" parent="1" vertex="1">
          <mxGeometry x="1221.3899999999999" y="1090" width="110" height="70" as="geometry" />
        </mxCell>
        <mxCell id="R0H3yH_AfiAj4ty1ME0v-38" value="" style="endArrow=none;html=1;rounded=0;exitX=1;exitY=0.5;exitDx=0;exitDy=0;" parent="1" source="R0H3yH_AfiAj4ty1ME0v-37" target="_afQoSZlzshs0_Bqq0BC-32" edge="1">
          <mxGeometry width="50" height="50" relative="1" as="geometry">
            <mxPoint x="1490" y="770" as="sourcePoint" />
            <mxPoint x="1540" y="720" as="targetPoint" />
          </mxGeometry>
        </mxCell>
        <mxCell id="R0H3yH_AfiAj4ty1ME0v-39" value="" style="endArrow=none;html=1;rounded=0;entryX=0;entryY=0.5;entryDx=0;entryDy=0;" parent="1" source="_afQoSZlzshs0_Bqq0BC-28" target="R0H3yH_AfiAj4ty1ME0v-37" edge="1">
          <mxGeometry width="50" height="50" relative="1" as="geometry">
            <mxPoint x="1490" y="770" as="sourcePoint" />
            <mxPoint x="1540" y="720" as="targetPoint" />
          </mxGeometry>
        </mxCell>
        <mxCell id="R0H3yH_AfiAj4ty1ME0v-31" value="DÃ©classer fichier" style="ellipse;whiteSpace=wrap;html=1;" parent="1" vertex="1">
          <mxGeometry x="1499.9999999999998" y="1145" width="110" height="70" as="geometry" />
        </mxCell>
        <mxCell id="R0H3yH_AfiAj4ty1ME0v-40" value="mets a jour le fichier en gardant l&#39;ancienne version visible" style="shape=note2;boundedLbl=1;whiteSpace=wrap;html=1;size=25;verticalAlign=top;align=center;" parent="1" vertex="1">
          <mxGeometry x="1780" y="1270" width="160" height="80" as="geometry" />
        </mxCell>
        <mxCell id="R0H3yH_AfiAj4ty1ME0v-41" value="changer de version fic" style="resizeWidth=1;part=1;strokeColor=none;fillColor=none;align=left;spacingLeft=5;" parent="R0H3yH_AfiAj4ty1ME0v-40" vertex="1">
          <mxGeometry width="160" height="25" relative="1" as="geometry" />
        </mxCell>
        <mxCell id="_afQoSZlzshs0_Bqq0BC-74" value="Consulter l&#39;historique des fichier consultÃ© " style="ellipse;whiteSpace=wrap;html=1;" parent="1" vertex="1">
          <mxGeometry x="1351.64" y="550" width="116" height="50" as="geometry" />
        </mxCell>
        <mxCell id="R0H3yH_AfiAj4ty1ME0v-42" value="" style="endArrow=none;dashed=1;html=1;dashPattern=1 3;strokeWidth=2;rounded=0;entryX=0;entryY=0;entryDx=0;entryDy=0;entryPerimeter=0;exitX=1;exitY=1;exitDx=0;exitDy=0;" parent="1" source="R0H3yH_AfiAj4ty1ME0v-30" target="R0H3yH_AfiAj4ty1ME0v-40" edge="1">
          <mxGeometry width="50" height="50" relative="1" as="geometry">
            <mxPoint x="1490" y="770" as="sourcePoint" />
            <mxPoint x="1540" y="720" as="targetPoint" />
          </mxGeometry>
        </mxCell>
        <mxCell id="_afQoSZlzshs0_Bqq0BC-75" value="GÃ©rer ses favoris" style="ellipse;whiteSpace=wrap;html=1;" parent="1" vertex="1">
          <mxGeometry x="1355.02" y="637.5" width="116" height="50" as="geometry" />
        </mxCell>
        <mxCell id="R0H3yH_AfiAj4ty1ME0v-43" value="" style="endArrow=open;html=1;rounded=0;exitX=0.5;exitY=1;exitDx=0;exitDy=0;entryX=0.012;entryY=0.267;entryDx=0;entryDy=0;dashed=1;endFill=0;entryPerimeter=0;" parent="1" source="R0H3yH_AfiAj4ty1ME0v-29" target="R0H3yH_AfiAj4ty1ME0v-44" edge="1">
          <mxGeometry width="50" height="50" relative="1" as="geometry">
            <mxPoint x="1490" y="950" as="sourcePoint" />
            <mxPoint x="1540" y="900" as="targetPoint" />
          </mxGeometry>
        </mxCell>
        <mxCell id="R0H3yH_AfiAj4ty1ME0v-44" value="notification" style="ellipse;whiteSpace=wrap;html=1;" parent="1" vertex="1">
          <mxGeometry x="1451.7599999999998" y="1270" width="129" height="60" as="geometry" />
        </mxCell>
        <mxCell id="R0H3yH_AfiAj4ty1ME0v-45" value="" style="endArrow=open;html=1;rounded=0;exitX=0.5;exitY=1;exitDx=0;exitDy=0;dashed=1;endFill=0;" parent="1" source="R0H3yH_AfiAj4ty1ME0v-30" target="R0H3yH_AfiAj4ty1ME0v-44" edge="1">
          <mxGeometry width="50" height="50" relative="1" as="geometry">
            <mxPoint x="1490" y="950" as="sourcePoint" />
            <mxPoint x="1540" y="900" as="targetPoint" />
          </mxGeometry>
        </mxCell>
        <mxCell id="_afQoSZlzshs0_Bqq0BC-76" value="Ajouter favoris" style="ellipse;whiteSpace=wrap;html=1;" parent="1" vertex="1">
          <mxGeometry x="1178.64" y="705" width="116" height="50" as="geometry" />
        </mxCell>
        <mxCell id="R0H3yH_AfiAj4ty1ME0v-46" value="voir la preview" style="ellipse;whiteSpace=wrap;html=1;" parent="1" vertex="1">
          <mxGeometry x="1211.3899999999999" y="1280" width="130" height="50" as="geometry" />
        </mxCell>
        <mxCell id="_afQoSZlzshs0_Bqq0BC-77" value="Suprimer favoris" style="ellipse;whiteSpace=wrap;html=1;" parent="1" vertex="1">
          <mxGeometry x="1353.3899999999999" y="740" width="116" height="50" as="geometry" />
        </mxCell>
        <mxCell id="_afQoSZlzshs0_Bqq0BC-78" value="Consulter les favoris " style="ellipse;whiteSpace=wrap;html=1;" parent="1" vertex="1">
          <mxGeometry x="1538" y="705" width="116" height="50" as="geometry" />
        </mxCell>
        <mxCell id="c8DYgFcGSBWXs4uaxMzO-1" value="" style="endArrow=block;html=1;rounded=0;exitX=1;exitY=0.5;exitDx=0;exitDy=0;entryX=0;entryY=0.5;entryDx=0;entryDy=0;endFill=0;" parent="1" source="_afQoSZlzshs0_Bqq0BC-76" target="_afQoSZlzshs0_Bqq0BC-75" edge="1">
          <mxGeometry width="50" height="50" relative="1" as="geometry">
            <mxPoint x="1270" y="505" as="sourcePoint" />
            <mxPoint x="1343" y="475" as="targetPoint" />
          </mxGeometry>
        </mxCell>
        <mxCell id="c8DYgFcGSBWXs4uaxMzO-2" value="" style="endArrow=block;html=1;rounded=0;exitX=0.5;exitY=0;exitDx=0;exitDy=0;entryX=0.5;entryY=1;entryDx=0;entryDy=0;endFill=0;" parent="1" source="_afQoSZlzshs0_Bqq0BC-77" target="_afQoSZlzshs0_Bqq0BC-75" edge="1">
          <mxGeometry width="50" height="50" relative="1" as="geometry">
            <mxPoint x="1300" y="555" as="sourcePoint" />
            <mxPoint x="1346" y="530" as="targetPoint" />
          </mxGeometry>
        </mxCell>
        <mxCell id="c8DYgFcGSBWXs4uaxMzO-3" value="" style="endArrow=block;html=1;rounded=0;exitX=0;exitY=0.5;exitDx=0;exitDy=0;entryX=1;entryY=0.5;entryDx=0;entryDy=0;endFill=0;" parent="1" source="_afQoSZlzshs0_Bqq0BC-78" target="_afQoSZlzshs0_Bqq0BC-75" edge="1">
          <mxGeometry width="50" height="50" relative="1" as="geometry">
            <mxPoint x="1310" y="565" as="sourcePoint" />
            <mxPoint x="1356" y="540" as="targetPoint" />
          </mxGeometry>
        </mxCell>
        <mxCell id="c8DYgFcGSBWXs4uaxMzO-4" value="" style="endArrow=open;html=1;rounded=0;exitX=1;exitY=0.5;exitDx=0;exitDy=0;entryX=0;entryY=0.5;entryDx=0;entryDy=0;dashed=1;endFill=0;" parent="1" source="_afQoSZlzshs0_Bqq0BC-69" target="_afQoSZlzshs0_Bqq0BC-68" edge="1">
          <mxGeometry width="50" height="50" relative="1" as="geometry">
            <mxPoint x="1296.5" y="310" as="sourcePoint" />
            <mxPoint x="1222.5" y="340" as="targetPoint" />
          </mxGeometry>
        </mxCell>
        <mxCell id="c8DYgFcGSBWXs4uaxMzO-7" value="" style="endArrow=open;html=1;rounded=0;exitX=1;exitY=1;exitDx=0;exitDy=0;dashed=1;endFill=0;" parent="1" source="_afQoSZlzshs0_Bqq0BC-70" target="_afQoSZlzshs0_Bqq0BC-68" edge="1">
          <mxGeometry width="50" height="50" relative="1" as="geometry">
            <mxPoint x="1226" y="310" as="sourcePoint" />
            <mxPoint x="1344" y="350" as="targetPoint" />
          </mxGeometry>
        </mxCell>
        <mxCell id="R0H3yH_AfiAj4ty1ME0v-47" value="&amp;lt;&amp;lt;include&amp;gt;&amp;gt;" style="text;html=1;strokeColor=none;fillColor=none;align=center;verticalAlign=middle;whiteSpace=wrap;rounded=0;" parent="1" vertex="1">
          <mxGeometry x="1294.6399999999999" y="1160" width="60" height="30" as="geometry" />
        </mxCell>
        <mxCell id="c8DYgFcGSBWXs4uaxMzO-8" value="" style="endArrow=open;html=1;rounded=0;exitX=0;exitY=0.5;exitDx=0;exitDy=0;entryX=1;entryY=0.5;entryDx=0;entryDy=0;dashed=1;endFill=0;" parent="1" source="_afQoSZlzshs0_Bqq0BC-73" target="_afQoSZlzshs0_Bqq0BC-68" edge="1">
          <mxGeometry width="50" height="50" relative="1" as="geometry">
            <mxPoint x="1292" y="382" as="sourcePoint" />
            <mxPoint x="1361" y="368" as="targetPoint" />
          </mxGeometry>
        </mxCell>
        <mxCell id="R0H3yH_AfiAj4ty1ME0v-48" value="&amp;lt;&amp;lt;include&amp;gt;&amp;gt;" style="text;html=1;strokeColor=none;fillColor=none;align=center;verticalAlign=middle;whiteSpace=wrap;rounded=0;" parent="1" vertex="1">
          <mxGeometry x="1161.3899999999999" y="1180" width="60" height="30" as="geometry" />
        </mxCell>
        <mxCell id="c8DYgFcGSBWXs4uaxMzO-9" value="" style="endArrow=open;html=1;rounded=0;exitX=0;exitY=0.5;exitDx=0;exitDy=0;entryX=1;entryY=0;entryDx=0;entryDy=0;dashed=1;endFill=0;" parent="1" source="_afQoSZlzshs0_Bqq0BC-71" target="_afQoSZlzshs0_Bqq0BC-68" edge="1">
          <mxGeometry width="50" height="50" relative="1" as="geometry">
            <mxPoint x="1492" y="400" as="sourcePoint" />
            <mxPoint x="1443" y="368" as="targetPoint" />
          </mxGeometry>
        </mxCell>
        <mxCell id="c8DYgFcGSBWXs4uaxMzO-10" value="" style="endArrow=open;html=1;rounded=0;exitX=0.5;exitY=0;exitDx=0;exitDy=0;entryX=0.5;entryY=1;entryDx=0;entryDy=0;dashed=1;endFill=0;" parent="1" source="_afQoSZlzshs0_Bqq0BC-68" target="_afQoSZlzshs0_Bqq0BC-67" edge="1">
          <mxGeometry width="50" height="50" relative="1" as="geometry">
            <mxPoint x="1540" y="310" as="sourcePoint" />
            <mxPoint x="1460" y="350" as="targetPoint" />
          </mxGeometry>
        </mxCell>
        <mxCell id="R0H3yH_AfiAj4ty1ME0v-50" value="" style="endArrow=open;html=1;rounded=0;exitX=0;exitY=1;exitDx=0;exitDy=0;dashed=1;endFill=0;entryX=1;entryY=0.5;entryDx=0;entryDy=0;" parent="1" source="R0H3yH_AfiAj4ty1ME0v-30" target="R0H3yH_AfiAj4ty1ME0v-46" edge="1">
          <mxGeometry width="50" height="50" relative="1" as="geometry">
            <mxPoint x="1375" y="960" as="sourcePoint" />
            <mxPoint x="1223" y="1004" as="targetPoint" />
          </mxGeometry>
        </mxCell>
        <mxCell id="R0H3yH_AfiAj4ty1ME0v-52" value="&amp;lt;&amp;lt;include&amp;gt;&amp;gt;" style="text;html=1;strokeColor=none;fillColor=none;align=center;verticalAlign=middle;whiteSpace=wrap;rounded=0;" parent="1" vertex="1">
          <mxGeometry x="1439.9999999999998" y="1200" width="60" height="30" as="geometry" />
        </mxCell>
        <mxCell id="R0H3yH_AfiAj4ty1ME0v-53" value="&amp;lt;&amp;lt;include&amp;gt;&amp;gt;" style="text;html=1;strokeColor=none;fillColor=none;align=center;verticalAlign=middle;whiteSpace=wrap;rounded=0;" parent="1" vertex="1">
          <mxGeometry x="1294.6399999999999" y="1230" width="60" height="30" as="geometry" />
        </mxCell>
        <mxCell id="c8DYgFcGSBWXs4uaxMzO-14" value="&amp;lt;&amp;lt;extends&amp;gt;&amp;gt;" style="text;html=1;strokeColor=none;fillColor=none;align=center;verticalAlign=middle;whiteSpace=wrap;rounded=0;" parent="1" vertex="1">
          <mxGeometry x="1478" y="310" width="60" height="30" as="geometry" />
        </mxCell>
        <mxCell id="c8DYgFcGSBWXs4uaxMzO-15" value="&amp;lt;&amp;lt;extends&amp;gt;&amp;gt;" style="text;html=1;strokeColor=none;fillColor=none;align=center;verticalAlign=middle;whiteSpace=wrap;rounded=0;" parent="1" vertex="1">
          <mxGeometry x="1471.0200000000002" y="475" width="60" height="30" as="geometry" />
        </mxCell>
        <mxCell id="c8DYgFcGSBWXs4uaxMzO-13" value="&amp;lt;&amp;lt;extends&amp;gt;&amp;gt;" style="text;html=1;strokeColor=none;fillColor=none;align=center;verticalAlign=middle;whiteSpace=wrap;rounded=0;" parent="1" vertex="1">
          <mxGeometry x="1466.5" y="425" width="60" height="30" as="geometry" />
        </mxCell>
        <mxCell id="R0H3yH_AfiAj4ty1ME0v-56" value="" style="endArrow=none;dashed=1;html=1;dashPattern=1 3;strokeWidth=2;rounded=0;entryX=0;entryY=1;entryDx=0;entryDy=0;entryPerimeter=0;exitX=1;exitY=0.5;exitDx=0;exitDy=0;" parent="1" source="R0H3yH_AfiAj4ty1ME0v-31" target="R0H3yH_AfiAj4ty1ME0v-54" edge="1">
          <mxGeometry width="50" height="50" relative="1" as="geometry">
            <mxPoint x="1490" y="910" as="sourcePoint" />
            <mxPoint x="1540" y="860" as="targetPoint" />
          </mxGeometry>
        </mxCell>
        <mxCell id="c8DYgFcGSBWXs4uaxMzO-16" value="" style="endArrow=none;html=1;rounded=0;entryX=0.006;entryY=0.623;entryDx=0;entryDy=0;entryPerimeter=0;" parent="1" source="_afQoSZlzshs0_Bqq0BC-27" target="_afQoSZlzshs0_Bqq0BC-68" edge="1">
          <mxGeometry width="50" height="50" relative="1" as="geometry">
            <mxPoint x="1330" y="460" as="sourcePoint" />
            <mxPoint x="1380" y="410" as="targetPoint" />
          </mxGeometry>
        </mxCell>
        <mxCell id="c8DYgFcGSBWXs4uaxMzO-17" value="" style="endArrow=none;html=1;rounded=0;" parent="1" source="_afQoSZlzshs0_Bqq0BC-68" target="_afQoSZlzshs0_Bqq0BC-32" edge="1">
          <mxGeometry width="50" height="50" relative="1" as="geometry">
            <mxPoint x="1451.5" y="350.5" as="sourcePoint" />
            <mxPoint x="1764.5" y="369.5" as="targetPoint" />
          </mxGeometry>
        </mxCell>
        <mxCell id="c8DYgFcGSBWXs4uaxMzO-11" value="&amp;lt;&amp;lt;extends&amp;gt;&amp;gt;" style="text;html=1;strokeColor=none;fillColor=none;align=center;verticalAlign=middle;whiteSpace=wrap;rounded=0;" parent="1" vertex="1">
          <mxGeometry x="1211" y="380" width="60" height="30" as="geometry" />
        </mxCell>
        <mxCell id="R0H3yH_AfiAj4ty1ME0v-54" value="rend un fichier invisible au pompier mais toujours existant" style="shape=note2;boundedLbl=1;whiteSpace=wrap;html=1;size=25;verticalAlign=top;align=center;" parent="1" vertex="1">
          <mxGeometry x="1780" y="1136.09" width="160" height="80" as="geometry" />
        </mxCell>
        <mxCell id="R0H3yH_AfiAj4ty1ME0v-55" value="DÃ©classer fichier" style="resizeWidth=1;part=1;strokeColor=none;fillColor=none;align=left;spacingLeft=5;" parent="R0H3yH_AfiAj4ty1ME0v-54" vertex="1">
          <mxGeometry width="160" height="25" relative="1" as="geometry" />
        </mxCell>
        <mxCell id="c8DYgFcGSBWXs4uaxMzO-12" value="&amp;lt;&amp;lt;extends&amp;gt;&amp;gt;" style="text;html=1;strokeColor=none;fillColor=none;align=center;verticalAlign=middle;whiteSpace=wrap;rounded=0;" parent="1" vertex="1">
          <mxGeometry x="1338.64" y="365" width="60" height="30" as="geometry" />
        </mxCell>
        <mxCell id="c8DYgFcGSBWXs4uaxMzO-18" value="" style="endArrow=none;html=1;rounded=0;" parent="1" source="_afQoSZlzshs0_Bqq0BC-27" target="_afQoSZlzshs0_Bqq0BC-74" edge="1">
          <mxGeometry width="50" height="50" relative="1" as="geometry">
            <mxPoint x="1032" y="337" as="sourcePoint" />
            <mxPoint x="1345" y="356" as="targetPoint" />
          </mxGeometry>
        </mxCell>
        <mxCell id="R0H3yH_AfiAj4ty1ME0v-51" value="" style="endArrow=open;html=1;rounded=0;exitX=0;exitY=0.5;exitDx=0;exitDy=0;entryX=0;entryY=0;entryDx=0;entryDy=0;dashed=1;endFill=0;" parent="1" source="R0H3yH_AfiAj4ty1ME0v-29" target="R0H3yH_AfiAj4ty1ME0v-46" edge="1">
          <mxGeometry width="50" height="50" relative="1" as="geometry">
            <mxPoint x="1242" y="960" as="sourcePoint" />
            <mxPoint x="1168" y="990" as="targetPoint" />
          </mxGeometry>
        </mxCell>
        <mxCell id="c8DYgFcGSBWXs4uaxMzO-19" value="" style="endArrow=none;html=1;rounded=0;" parent="1" source="_afQoSZlzshs0_Bqq0BC-27" target="_afQoSZlzshs0_Bqq0BC-75" edge="1">
          <mxGeometry width="50" height="50" relative="1" as="geometry">
            <mxPoint x="1032" y="346" as="sourcePoint" />
            <mxPoint x="1356" y="446" as="targetPoint" />
          </mxGeometry>
        </mxCell>
        <mxCell id="c8DYgFcGSBWXs4uaxMzO-20" value="" style="endArrow=none;html=1;rounded=0;" parent="1" source="_afQoSZlzshs0_Bqq0BC-75" target="_afQoSZlzshs0_Bqq0BC-32" edge="1">
          <mxGeometry width="50" height="50" relative="1" as="geometry">
            <mxPoint x="1032" y="352" as="sourcePoint" />
            <mxPoint x="1365" y="511" as="targetPoint" />
          </mxGeometry>
        </mxCell>
        <mxCell id="c8DYgFcGSBWXs4uaxMzO-21" value="" style="endArrow=none;html=1;rounded=0;" parent="1" source="_afQoSZlzshs0_Bqq0BC-74" target="_afQoSZlzshs0_Bqq0BC-32" edge="1">
          <mxGeometry width="50" height="50" relative="1" as="geometry">
            <mxPoint x="1042" y="362" as="sourcePoint" />
            <mxPoint x="1375" y="521" as="targetPoint" />
          </mxGeometry>
        </mxCell>
        <mxCell id="c8DYgFcGSBWXs4uaxMzO-22" value="" style="endArrow=none;html=1;rounded=0;" parent="1" source="_afQoSZlzshs0_Bqq0BC-68" target="_afQoSZlzshs0_Bqq0BC-32" edge="1">
          <mxGeometry width="50" height="50" relative="1" as="geometry">
            <mxPoint x="1052" y="372" as="sourcePoint" />
            <mxPoint x="1385" y="531" as="targetPoint" />
          </mxGeometry>
        </mxCell>
        <mxCell id="c8DYgFcGSBWXs4uaxMzO-23" value="" style="endArrow=none;html=1;rounded=0;" parent="1" source="_afQoSZlzshs0_Bqq0BC-27" target="_afQoSZlzshs0_Bqq0BC-67" edge="1">
          <mxGeometry width="50" height="50" relative="1" as="geometry">
            <mxPoint x="1062" y="382" as="sourcePoint" />
            <mxPoint x="1395" y="541" as="targetPoint" />
          </mxGeometry>
        </mxCell>
        <mxCell id="c8DYgFcGSBWXs4uaxMzO-24" value="" style="endArrow=none;html=1;rounded=0;" parent="1" source="_afQoSZlzshs0_Bqq0BC-27" target="_afQoSZlzshs0_Bqq0BC-66" edge="1">
          <mxGeometry width="50" height="50" relative="1" as="geometry">
            <mxPoint x="1072" y="392" as="sourcePoint" />
            <mxPoint x="1405" y="551" as="targetPoint" />
          </mxGeometry>
        </mxCell>
        <mxCell id="c8DYgFcGSBWXs4uaxMzO-25" value="" style="endArrow=none;html=1;rounded=0;" parent="1" source="_afQoSZlzshs0_Bqq0BC-27" target="_afQoSZlzshs0_Bqq0BC-64" edge="1">
          <mxGeometry width="50" height="50" relative="1" as="geometry">
            <mxPoint x="1082" y="402" as="sourcePoint" />
            <mxPoint x="1415" y="561" as="targetPoint" />
          </mxGeometry>
        </mxCell>
        <mxCell id="c8DYgFcGSBWXs4uaxMzO-26" value="" style="endArrow=none;html=1;rounded=0;" parent="1" source="_afQoSZlzshs0_Bqq0BC-67" target="_afQoSZlzshs0_Bqq0BC-32" edge="1">
          <mxGeometry width="50" height="50" relative="1" as="geometry">
            <mxPoint x="1092" y="412" as="sourcePoint" />
            <mxPoint x="1425" y="571" as="targetPoint" />
          </mxGeometry>
        </mxCell>
        <mxCell id="c8DYgFcGSBWXs4uaxMzO-27" value="" style="endArrow=none;html=1;rounded=0;" parent="1" source="_afQoSZlzshs0_Bqq0BC-66" target="_afQoSZlzshs0_Bqq0BC-32" edge="1">
          <mxGeometry width="50" height="50" relative="1" as="geometry">
            <mxPoint x="1102" y="422" as="sourcePoint" />
            <mxPoint x="1435" y="581" as="targetPoint" />
          </mxGeometry>
        </mxCell>
        <mxCell id="c8DYgFcGSBWXs4uaxMzO-28" value="" style="endArrow=none;html=1;rounded=0;exitX=1;exitY=0.5;exitDx=0;exitDy=0;" parent="1" source="_afQoSZlzshs0_Bqq0BC-64" target="_afQoSZlzshs0_Bqq0BC-32" edge="1">
          <mxGeometry width="50" height="50" relative="1" as="geometry">
            <mxPoint x="1112" y="432" as="sourcePoint" />
            <mxPoint x="1445" y="591" as="targetPoint" />
          </mxGeometry>
        </mxCell>
      </root>
    </mxGraphModel>
  </diagram>
  <diagram id="SHH5RB6O0GaNENXZXoB2" name="MCD">
    <mxGraphModel dx="1434" dy="797" grid="1" gridSize="10" guides="1" tooltips="1" connect="1" arrows="1" fold="1" page="1" pageScale="1" pageWidth="827" pageHeight="1169" math="0" shadow="0">
      <root>
        <mxCell id="0" />
        <mxCell id="1" parent="0" />
        <mxCell id="LHKfkxHCovBLvszqjP4N-1" value="ROLE_POMPIER" style="swimlane;fontStyle=0;childLayout=stackLayout;horizontal=1;startSize=26;fillColor=none;horizontalStack=0;resizeParent=1;resizeParentMax=0;resizeLast=0;collapsible=1;marginBottom=0;whiteSpace=wrap;html=1;" parent="1" vertex="1">
          <mxGeometry x="567" y="620" width="246" height="104" as="geometry" />
        </mxCell>
        <mxCell id="LHKfkxHCovBLvszqjP4N-2" value="- PK : idRoleUtilisateur" style="text;strokeColor=none;fillColor=none;align=left;verticalAlign=top;spacingLeft=4;spacingRight=4;overflow=hidden;rotatable=0;points=[[0,0.5],[1,0.5]];portConstraint=eastwest;whiteSpace=wrap;html=1;" parent="LHKfkxHCovBLvszqjP4N-1" vertex="1">
          <mxGeometry y="26" width="246" height="26" as="geometry" />
        </mxCell>
        <mxCell id="LHKfkxHCovBLvszqjP4N-3" value="- nomRoleUtilisateur" style="text;strokeColor=none;fillColor=none;align=left;verticalAlign=top;spacingLeft=4;spacingRight=4;overflow=hidden;rotatable=0;points=[[0,0.5],[1,0.5]];portConstraint=eastwest;whiteSpace=wrap;html=1;" parent="LHKfkxHCovBLvszqjP4N-1" vertex="1">
          <mxGeometry y="52" width="246" height="26" as="geometry" />
        </mxCell>
        <mxCell id="LHKfkxHCovBLvszqjP4N-4" value="- descriptionRoleUtilisateur" style="text;strokeColor=none;fillColor=none;align=left;verticalAlign=top;spacingLeft=4;spacingRight=4;overflow=hidden;rotatable=0;points=[[0,0.5],[1,0.5]];portConstraint=eastwest;whiteSpace=wrap;html=1;" parent="LHKfkxHCovBLvszqjP4N-1" vertex="1">
          <mxGeometry y="78" width="246" height="26" as="geometry" />
        </mxCell>
        <mxCell id="LHKfkxHCovBLvszqjP4N-5" value="Pompier" style="swimlane;fontStyle=0;childLayout=stackLayout;horizontal=1;startSize=30;horizontalStack=0;resizeParent=1;resizeParentMax=0;resizeLast=0;collapsible=1;marginBottom=0;whiteSpace=wrap;html=1;" parent="1" vertex="1">
          <mxGeometry x="190" y="585" width="140" height="210" as="geometry" />
        </mxCell>
        <mxCell id="LHKfkxHCovBLvszqjP4N-6" value="- PK : idPompier" style="text;strokeColor=none;fillColor=none;align=left;verticalAlign=middle;spacingLeft=4;spacingRight=4;overflow=hidden;points=[[0,0.5],[1,0.5]];portConstraint=eastwest;rotatable=0;whiteSpace=wrap;html=1;" parent="LHKfkxHCovBLvszqjP4N-5" vertex="1">
          <mxGeometry y="30" width="140" height="30" as="geometry" />
        </mxCell>
        <mxCell id="LHKfkxHCovBLvszqjP4N-7" value="- nomPompier" style="text;strokeColor=none;fillColor=none;align=left;verticalAlign=middle;spacingLeft=4;spacingRight=4;overflow=hidden;points=[[0,0.5],[1,0.5]];portConstraint=eastwest;rotatable=0;whiteSpace=wrap;html=1;" parent="LHKfkxHCovBLvszqjP4N-5" vertex="1">
          <mxGeometry y="60" width="140" height="30" as="geometry" />
        </mxCell>
        <mxCell id="LHKfkxHCovBLvszqjP4N-8" value="- prenomPompier" style="text;strokeColor=none;fillColor=none;align=left;verticalAlign=middle;spacingLeft=4;spacingRight=4;overflow=hidden;points=[[0,0.5],[1,0.5]];portConstraint=eastwest;rotatable=0;whiteSpace=wrap;html=1;" parent="LHKfkxHCovBLvszqjP4N-5" vertex="1">
          <mxGeometry y="90" width="140" height="30" as="geometry" />
        </mxCell>
        <mxCell id="LHKfkxHCovBLvszqjP4N-9" value="- emailPompier" style="text;strokeColor=none;fillColor=none;align=left;verticalAlign=middle;spacingLeft=4;spacingRight=4;overflow=hidden;points=[[0,0.5],[1,0.5]];portConstraint=eastwest;rotatable=0;whiteSpace=wrap;html=1;" parent="LHKfkxHCovBLvszqjP4N-5" vertex="1">
          <mxGeometry y="120" width="140" height="30" as="geometry" />
        </mxCell>
        <mxCell id="LHKfkxHCovBLvszqjP4N-10" value="- mdpPompier" style="text;strokeColor=none;fillColor=none;align=left;verticalAlign=middle;spacingLeft=4;spacingRight=4;overflow=hidden;points=[[0,0.5],[1,0.5]];portConstraint=eastwest;rotatable=0;whiteSpace=wrap;html=1;" parent="LHKfkxHCovBLvszqjP4N-5" vertex="1">
          <mxGeometry y="150" width="140" height="30" as="geometry" />
        </mxCell>
        <mxCell id="LHKfkxHCovBLvszqjP4N-11" value="- photoPompier" style="text;strokeColor=none;fillColor=none;align=left;verticalAlign=middle;spacingLeft=4;spacingRight=4;overflow=hidden;points=[[0,0.5],[1,0.5]];portConstraint=eastwest;rotatable=0;whiteSpace=wrap;html=1;" parent="LHKfkxHCovBLvszqjP4N-5" vertex="1">
          <mxGeometry y="180" width="140" height="30" as="geometry" />
        </mxCell>
        <mxCell id="LHKfkxHCovBLvszqjP4N-12" value="CATEGORIE" style="swimlane;fontStyle=0;childLayout=stackLayout;horizontal=1;startSize=30;horizontalStack=0;resizeParent=1;resizeParentMax=0;resizeLast=0;collapsible=1;marginBottom=0;whiteSpace=wrap;html=1;" parent="1" vertex="1">
          <mxGeometry x="670" y="170" width="140" height="90" as="geometry" />
        </mxCell>
        <mxCell id="LHKfkxHCovBLvszqjP4N-13" value="- PK : idCategorie" style="text;strokeColor=none;fillColor=none;align=left;verticalAlign=middle;spacingLeft=4;spacingRight=4;overflow=hidden;points=[[0,0.5],[1,0.5]];portConstraint=eastwest;rotatable=0;whiteSpace=wrap;html=1;" parent="LHKfkxHCovBLvszqjP4N-12" vertex="1">
          <mxGeometry y="30" width="140" height="30" as="geometry" />
        </mxCell>
        <mxCell id="LHKfkxHCovBLvszqjP4N-14" value="- nomCategorie" style="text;strokeColor=none;fillColor=none;align=left;verticalAlign=middle;spacingLeft=4;spacingRight=4;overflow=hidden;points=[[0,0.5],[1,0.5]];portConstraint=eastwest;rotatable=0;whiteSpace=wrap;html=1;" parent="LHKfkxHCovBLvszqjP4N-12" vertex="1">
          <mxGeometry y="60" width="140" height="30" as="geometry" />
        </mxCell>
        <mxCell id="LHKfkxHCovBLvszqjP4N-15" value="SOUS_CATEGORIE" style="swimlane;fontStyle=0;childLayout=stackLayout;horizontal=1;startSize=30;horizontalStack=0;resizeParent=1;resizeParentMax=0;resizeLast=0;collapsible=1;marginBottom=0;whiteSpace=wrap;html=1;" parent="1" vertex="1">
          <mxGeometry x="620" y="420" width="140" height="90" as="geometry" />
        </mxCell>
        <mxCell id="LHKfkxHCovBLvszqjP4N-16" value="- PK : idSousCatÃ©gorie" style="text;strokeColor=none;fillColor=none;align=left;verticalAlign=middle;spacingLeft=4;spacingRight=4;overflow=hidden;points=[[0,0.5],[1,0.5]];portConstraint=eastwest;rotatable=0;whiteSpace=wrap;html=1;" parent="LHKfkxHCovBLvszqjP4N-15" vertex="1">
          <mxGeometry y="30" width="140" height="30" as="geometry" />
        </mxCell>
        <mxCell id="LHKfkxHCovBLvszqjP4N-17" value="- nomSousCategorie" style="text;strokeColor=none;fillColor=none;align=left;verticalAlign=middle;spacingLeft=4;spacingRight=4;overflow=hidden;points=[[0,0.5],[1,0.5]];portConstraint=eastwest;rotatable=0;whiteSpace=wrap;html=1;" parent="LHKfkxHCovBLvszqjP4N-15" vertex="1">
          <mxGeometry y="60" width="140" height="30" as="geometry" />
        </mxCell>
        <mxCell id="LHKfkxHCovBLvszqjP4N-18" value="DATE" style="swimlane;fontStyle=0;childLayout=stackLayout;horizontal=1;startSize=30;horizontalStack=0;resizeParent=1;resizeParentMax=0;resizeLast=0;collapsible=1;marginBottom=0;whiteSpace=wrap;html=1;" parent="1" vertex="1">
          <mxGeometry y="270" width="140" height="90" as="geometry" />
        </mxCell>
        <mxCell id="LHKfkxHCovBLvszqjP4N-19" value="- PK : idDate" style="text;strokeColor=none;fillColor=none;align=left;verticalAlign=middle;spacingLeft=4;spacingRight=4;overflow=hidden;points=[[0,0.5],[1,0.5]];portConstraint=eastwest;rotatable=0;whiteSpace=wrap;html=1;" parent="LHKfkxHCovBLvszqjP4N-18" vertex="1">
          <mxGeometry y="30" width="140" height="30" as="geometry" />
        </mxCell>
        <mxCell id="LHKfkxHCovBLvszqjP4N-20" value="- laDate" style="text;strokeColor=none;fillColor=none;align=left;verticalAlign=middle;spacingLeft=4;spacingRight=4;overflow=hidden;points=[[0,0.5],[1,0.5]];portConstraint=eastwest;rotatable=0;whiteSpace=wrap;html=1;" parent="LHKfkxHCovBLvszqjP4N-18" vertex="1">
          <mxGeometry y="60" width="140" height="30" as="geometry" />
        </mxCell>
        <mxCell id="LHKfkxHCovBLvszqjP4N-21" value="EST_CAT" style="shape=rhombus;perimeter=rhombusPerimeter;whiteSpace=wrap;html=1;align=center;" parent="1" vertex="1">
          <mxGeometry x="520" y="285" width="120" height="60" as="geometry" />
        </mxCell>
        <mxCell id="LHKfkxHCovBLvszqjP4N-22" value="A consulte" style="shape=rhombus;perimeter=rhombusPerimeter;whiteSpace=wrap;html=1;align=center;" parent="1" vertex="1">
          <mxGeometry x="200" y="285" width="120" height="60" as="geometry" />
        </mxCell>
        <mxCell id="LHKfkxHCovBLvszqjP4N-23" value="EST_ROLE" style="shape=rhombus;perimeter=rhombusPerimeter;whiteSpace=wrap;html=1;align=center;" parent="1" vertex="1">
          <mxGeometry x="405" y="660" width="120" height="60" as="geometry" />
        </mxCell>
        <mxCell id="LHKfkxHCovBLvszqjP4N-24" value="" style="shape=rhombus;perimeter=rhombusPerimeter;whiteSpace=wrap;html=1;align=center;" parent="1" vertex="1">
          <mxGeometry x="460" y="470" width="135" height="80" as="geometry" />
        </mxCell>
        <mxCell id="LHKfkxHCovBLvszqjP4N-25" value="Favorie" style="shape=rhombus;perimeter=rhombusPerimeter;whiteSpace=wrap;html=1;align=center;" parent="1" vertex="1">
          <mxGeometry x="310" y="450" width="120" height="60" as="geometry" />
        </mxCell>
        <mxCell id="LHKfkxHCovBLvszqjP4N-26" value="EST_ETAT" style="shape=rhombus;perimeter=rhombusPerimeter;whiteSpace=wrap;html=1;align=center;" parent="1" vertex="1">
          <mxGeometry x="350" y="50" width="120" height="60" as="geometry" />
        </mxCell>
        <mxCell id="LHKfkxHCovBLvszqjP4N-27" value="FICHIER" style="swimlane;fontStyle=0;childLayout=stackLayout;horizontal=1;startSize=30;horizontalStack=0;resizeParent=1;resizeParentMax=0;resizeLast=0;collapsible=1;marginBottom=0;whiteSpace=wrap;html=1;" parent="1" vertex="1">
          <mxGeometry x="350" y="240" width="140" height="150" as="geometry" />
        </mxCell>
        <mxCell id="LHKfkxHCovBLvszqjP4N-28" value="- PK : idFicher" style="text;strokeColor=none;fillColor=none;align=left;verticalAlign=middle;spacingLeft=4;spacingRight=4;overflow=hidden;points=[[0,0.5],[1,0.5]];portConstraint=eastwest;rotatable=0;whiteSpace=wrap;html=1;" parent="LHKfkxHCovBLvszqjP4N-27" vertex="1">
          <mxGeometry y="30" width="140" height="30" as="geometry" />
        </mxCell>
        <mxCell id="LHKfkxHCovBLvszqjP4N-29" value="- nomFicher" style="text;strokeColor=none;fillColor=none;align=left;verticalAlign=middle;spacingLeft=4;spacingRight=4;overflow=hidden;points=[[0,0.5],[1,0.5]];portConstraint=eastwest;rotatable=0;whiteSpace=wrap;html=1;" parent="LHKfkxHCovBLvszqjP4N-27" vertex="1">
          <mxGeometry y="60" width="140" height="30" as="geometry" />
        </mxCell>
        <mxCell id="LHKfkxHCovBLvszqjP4N-30" value="- leFichier" style="text;strokeColor=none;fillColor=none;align=left;verticalAlign=middle;spacingLeft=4;spacingRight=4;overflow=hidden;points=[[0,0.5],[1,0.5]];portConstraint=eastwest;rotatable=0;whiteSpace=wrap;html=1;" parent="LHKfkxHCovBLvszqjP4N-27" vertex="1">
          <mxGeometry y="90" width="140" height="30" as="geometry" />
        </mxCell>
        <mxCell id="LHKfkxHCovBLvszqjP4N-31" value="- extensionFichier" style="text;strokeColor=none;fillColor=none;align=left;verticalAlign=middle;spacingLeft=4;spacingRight=4;overflow=hidden;points=[[0,0.5],[1,0.5]];portConstraint=eastwest;rotatable=0;whiteSpace=wrap;html=1;" parent="LHKfkxHCovBLvszqjP4N-27" vertex="1">
          <mxGeometry y="120" width="140" height="30" as="geometry" />
        </mxCell>
        <mxCell id="LHKfkxHCovBLvszqjP4N-32" value="" style="endArrow=none;html=1;rounded=0;exitX=1;exitY=0.5;exitDx=0;exitDy=0;entryX=0;entryY=0.5;entryDx=0;entryDy=0;" parent="1" source="LHKfkxHCovBLvszqjP4N-8" target="LHKfkxHCovBLvszqjP4N-23" edge="1">
          <mxGeometry width="50" height="50" relative="1" as="geometry">
            <mxPoint x="390" y="440" as="sourcePoint" />
            <mxPoint x="440" y="390" as="targetPoint" />
          </mxGeometry>
        </mxCell>
        <mxCell id="LHKfkxHCovBLvszqjP4N-33" value="" style="endArrow=none;html=1;rounded=0;exitX=1;exitY=0.5;exitDx=0;exitDy=0;entryX=0;entryY=0.5;entryDx=0;entryDy=0;" parent="1" source="LHKfkxHCovBLvszqjP4N-23" target="LHKfkxHCovBLvszqjP4N-3" edge="1">
          <mxGeometry width="50" height="50" relative="1" as="geometry">
            <mxPoint x="390" y="440" as="sourcePoint" />
            <mxPoint x="440" y="390" as="targetPoint" />
          </mxGeometry>
        </mxCell>
        <mxCell id="LHKfkxHCovBLvszqjP4N-34" value="(1,1)" style="text;html=1;align=center;verticalAlign=middle;resizable=0;points=[];autosize=1;strokeColor=none;fillColor=none;" parent="1" vertex="1">
          <mxGeometry x="364" y="650" width="50" height="30" as="geometry" />
        </mxCell>
        <mxCell id="LHKfkxHCovBLvszqjP4N-35" value="(0,n)" style="text;html=1;align=center;verticalAlign=middle;resizable=0;points=[];autosize=1;strokeColor=none;fillColor=none;" parent="1" vertex="1">
          <mxGeometry x="470" y="540" width="50" height="30" as="geometry" />
        </mxCell>
        <mxCell id="LHKfkxHCovBLvszqjP4N-36" value="ETAT_FICHIER" style="swimlane;fontStyle=0;childLayout=stackLayout;horizontal=1;startSize=30;horizontalStack=0;resizeParent=1;resizeParentMax=0;resizeLast=0;collapsible=1;marginBottom=0;whiteSpace=wrap;html=1;" parent="1" vertex="1">
          <mxGeometry x="550" y="20" width="140" height="120" as="geometry" />
        </mxCell>
        <mxCell id="LHKfkxHCovBLvszqjP4N-37" value="- PK : idFicher" style="text;strokeColor=none;fillColor=none;align=left;verticalAlign=middle;spacingLeft=4;spacingRight=4;overflow=hidden;points=[[0,0.5],[1,0.5]];portConstraint=eastwest;rotatable=0;whiteSpace=wrap;html=1;" parent="LHKfkxHCovBLvszqjP4N-36" vertex="1">
          <mxGeometry y="30" width="140" height="30" as="geometry" />
        </mxCell>
        <mxCell id="LHKfkxHCovBLvszqjP4N-38" value="- nomEtatFichier" style="text;strokeColor=none;fillColor=none;align=left;verticalAlign=middle;spacingLeft=4;spacingRight=4;overflow=hidden;points=[[0,0.5],[1,0.5]];portConstraint=eastwest;rotatable=0;whiteSpace=wrap;html=1;" parent="LHKfkxHCovBLvszqjP4N-36" vertex="1">
          <mxGeometry y="60" width="140" height="30" as="geometry" />
        </mxCell>
        <mxCell id="LHKfkxHCovBLvszqjP4N-39" value="- descriptionEtatFichier" style="text;strokeColor=none;fillColor=none;align=left;verticalAlign=middle;spacingLeft=4;spacingRight=4;overflow=hidden;points=[[0,0.5],[1,0.5]];portConstraint=eastwest;rotatable=0;whiteSpace=wrap;html=1;" parent="LHKfkxHCovBLvszqjP4N-36" vertex="1">
          <mxGeometry y="90" width="140" height="30" as="geometry" />
        </mxCell>
        <mxCell id="LHKfkxHCovBLvszqjP4N-40" value="" style="endArrow=none;html=1;rounded=0;" parent="1" source="LHKfkxHCovBLvszqjP4N-24" target="LHKfkxHCovBLvszqjP4N-5" edge="1">
          <mxGeometry width="50" height="50" relative="1" as="geometry">
            <mxPoint x="390" y="440" as="sourcePoint" />
            <mxPoint x="440" y="390" as="targetPoint" />
          </mxGeometry>
        </mxCell>
        <mxCell id="LHKfkxHCovBLvszqjP4N-41" value="" style="endArrow=none;html=1;rounded=0;exitX=1;exitY=0.5;exitDx=0;exitDy=0;" parent="1" source="LHKfkxHCovBLvszqjP4N-26" target="LHKfkxHCovBLvszqjP4N-36" edge="1">
          <mxGeometry width="50" height="50" relative="1" as="geometry">
            <mxPoint x="260" y="380" as="sourcePoint" />
            <mxPoint x="310" y="330" as="targetPoint" />
          </mxGeometry>
        </mxCell>
        <mxCell id="LHKfkxHCovBLvszqjP4N-42" value="" style="endArrow=none;html=1;rounded=0;entryX=1;entryY=0.5;entryDx=0;entryDy=0;exitX=0.067;exitY=0.533;exitDx=0;exitDy=0;exitPerimeter=0;" parent="1" source="LHKfkxHCovBLvszqjP4N-22" target="LHKfkxHCovBLvszqjP4N-19" edge="1">
          <mxGeometry width="50" height="50" relative="1" as="geometry">
            <mxPoint x="390" y="440" as="sourcePoint" />
            <mxPoint x="440" y="390" as="targetPoint" />
          </mxGeometry>
        </mxCell>
        <mxCell id="LHKfkxHCovBLvszqjP4N-43" value="" style="endArrow=none;html=1;rounded=0;" parent="1" source="LHKfkxHCovBLvszqjP4N-27" target="LHKfkxHCovBLvszqjP4N-26" edge="1">
          <mxGeometry width="50" height="50" relative="1" as="geometry">
            <mxPoint x="480" y="90" as="sourcePoint" />
            <mxPoint x="560" y="90" as="targetPoint" />
          </mxGeometry>
        </mxCell>
        <mxCell id="LHKfkxHCovBLvszqjP4N-44" value="est dans " style="shape=rhombus;perimeter=rhombusPerimeter;whiteSpace=wrap;html=1;align=center;" parent="1" vertex="1">
          <mxGeometry x="680" y="300" width="120" height="60" as="geometry" />
        </mxCell>
        <mxCell id="LHKfkxHCovBLvszqjP4N-45" value="(0,n)" style="text;html=1;align=center;verticalAlign=middle;resizable=0;points=[];autosize=1;strokeColor=none;fillColor=none;" parent="1" vertex="1">
          <mxGeometry x="460" y="50" width="50" height="30" as="geometry" />
        </mxCell>
        <mxCell id="LHKfkxHCovBLvszqjP4N-46" value="(0,n)" style="text;html=1;align=center;verticalAlign=middle;resizable=0;points=[];autosize=1;strokeColor=none;fillColor=none;" parent="1" vertex="1">
          <mxGeometry x="405" y="100" width="50" height="30" as="geometry" />
        </mxCell>
        <mxCell id="LHKfkxHCovBLvszqjP4N-47" value="" style="endArrow=none;html=1;rounded=0;" parent="1" source="LHKfkxHCovBLvszqjP4N-15" target="LHKfkxHCovBLvszqjP4N-44" edge="1">
          <mxGeometry width="50" height="50" relative="1" as="geometry">
            <mxPoint x="390" y="490" as="sourcePoint" />
            <mxPoint x="440" y="440" as="targetPoint" />
          </mxGeometry>
        </mxCell>
        <mxCell id="LHKfkxHCovBLvszqjP4N-48" value="" style="endArrow=none;html=1;rounded=0;entryX=0.5;entryY=0;entryDx=0;entryDy=0;exitX=0.5;exitY=1;exitDx=0;exitDy=0;" parent="1" source="LHKfkxHCovBLvszqjP4N-12" target="LHKfkxHCovBLvszqjP4N-44" edge="1">
          <mxGeometry width="50" height="50" relative="1" as="geometry">
            <mxPoint x="390" y="490" as="sourcePoint" />
            <mxPoint x="440" y="440" as="targetPoint" />
          </mxGeometry>
        </mxCell>
        <mxCell id="LHKfkxHCovBLvszqjP4N-49" value="(1,1)" style="text;html=1;align=center;verticalAlign=middle;resizable=0;points=[];autosize=1;strokeColor=none;fillColor=none;" parent="1" vertex="1">
          <mxGeometry x="740" y="360" width="50" height="30" as="geometry" />
        </mxCell>
        <mxCell id="LHKfkxHCovBLvszqjP4N-50" value="" style="endArrow=none;html=1;rounded=0;" parent="1" source="LHKfkxHCovBLvszqjP4N-27" target="LHKfkxHCovBLvszqjP4N-21" edge="1">
          <mxGeometry width="50" height="50" relative="1" as="geometry">
            <mxPoint x="420" y="250" as="sourcePoint" />
            <mxPoint x="420" y="120" as="targetPoint" />
          </mxGeometry>
        </mxCell>
        <mxCell id="LHKfkxHCovBLvszqjP4N-51" value="" style="endArrow=none;html=1;rounded=0;" parent="1" source="LHKfkxHCovBLvszqjP4N-21" target="LHKfkxHCovBLvszqjP4N-15" edge="1">
          <mxGeometry width="50" height="50" relative="1" as="geometry">
            <mxPoint x="260" y="380" as="sourcePoint" />
            <mxPoint x="310" y="330" as="targetPoint" />
          </mxGeometry>
        </mxCell>
        <mxCell id="LHKfkxHCovBLvszqjP4N-52" value="- description" style="text;html=1;align=center;verticalAlign=middle;resizable=0;points=[];autosize=1;strokeColor=none;fillColor=none;" parent="1" vertex="1">
          <mxGeometry x="482.5" y="510" width="90" height="30" as="geometry" />
        </mxCell>
        <mxCell id="LHKfkxHCovBLvszqjP4N-53" value="(0,n)" style="text;html=1;align=center;verticalAlign=middle;resizable=0;points=[];autosize=1;strokeColor=none;fillColor=none;" parent="1" vertex="1">
          <mxGeometry x="750" y="270" width="50" height="30" as="geometry" />
        </mxCell>
        <mxCell id="LHKfkxHCovBLvszqjP4N-54" value="" style="endArrow=none;html=1;rounded=0;exitX=0.5;exitY=1;exitDx=0;exitDy=0;entryX=0.5;entryY=0;entryDx=0;entryDy=0;" parent="1" source="LHKfkxHCovBLvszqjP4N-22" target="LHKfkxHCovBLvszqjP4N-5" edge="1">
          <mxGeometry width="50" height="50" relative="1" as="geometry">
            <mxPoint x="390" y="440" as="sourcePoint" />
            <mxPoint x="440" y="390" as="targetPoint" />
          </mxGeometry>
        </mxCell>
        <mxCell id="LHKfkxHCovBLvszqjP4N-55" value="SIGANLEMENT" style="text;html=1;align=center;verticalAlign=middle;resizable=0;points=[];autosize=1;strokeColor=none;fillColor=none;" parent="1" vertex="1">
          <mxGeometry x="472.5" y="490" width="110" height="30" as="geometry" />
        </mxCell>
        <mxCell id="LHKfkxHCovBLvszqjP4N-56" value="" style="endArrow=none;html=1;rounded=0;exitX=0;exitY=0.5;exitDx=0;exitDy=0;entryX=1;entryY=0.5;entryDx=0;entryDy=0;" parent="1" source="LHKfkxHCovBLvszqjP4N-29" target="LHKfkxHCovBLvszqjP4N-22" edge="1">
          <mxGeometry width="50" height="50" relative="1" as="geometry">
            <mxPoint x="270" y="355" as="sourcePoint" />
            <mxPoint x="270" y="500" as="targetPoint" />
          </mxGeometry>
        </mxCell>
        <mxCell id="LHKfkxHCovBLvszqjP4N-57" value="(0,n)" style="text;html=1;align=center;verticalAlign=middle;resizable=0;points=[];autosize=1;strokeColor=none;fillColor=none;" parent="1" vertex="1">
          <mxGeometry x="160" y="285" width="50" height="30" as="geometry" />
        </mxCell>
        <mxCell id="LHKfkxHCovBLvszqjP4N-58" value="" style="endArrow=none;html=1;rounded=0;exitX=0;exitY=0.5;exitDx=0;exitDy=0;entryX=1;entryY=0.5;entryDx=0;entryDy=0;" parent="1" source="LHKfkxHCovBLvszqjP4N-24" target="LHKfkxHCovBLvszqjP4N-24" edge="1">
          <mxGeometry width="50" height="50" relative="1" as="geometry">
            <mxPoint x="615" y="470" as="sourcePoint" />
            <mxPoint x="665" y="420" as="targetPoint" />
          </mxGeometry>
        </mxCell>
        <mxCell id="LHKfkxHCovBLvszqjP4N-59" value="" style="endArrow=none;html=1;rounded=0;entryX=0.378;entryY=0.163;entryDx=0;entryDy=0;entryPerimeter=0;" parent="1" source="LHKfkxHCovBLvszqjP4N-27" target="LHKfkxHCovBLvszqjP4N-24" edge="1">
          <mxGeometry width="50" height="50" relative="1" as="geometry">
            <mxPoint x="260" y="380" as="sourcePoint" />
            <mxPoint x="310" y="330" as="targetPoint" />
          </mxGeometry>
        </mxCell>
        <mxCell id="LHKfkxHCovBLvszqjP4N-60" value="(0,n)" style="text;html=1;align=center;verticalAlign=middle;resizable=0;points=[];autosize=1;strokeColor=none;fillColor=none;" parent="1" vertex="1">
          <mxGeometry x="300" y="285" width="50" height="30" as="geometry" />
        </mxCell>
        <mxCell id="LHKfkxHCovBLvszqjP4N-61" value="(0,n)" style="text;html=1;align=center;verticalAlign=middle;resizable=0;points=[];autosize=1;strokeColor=none;fillColor=none;" parent="1" vertex="1">
          <mxGeometry x="210" y="345" width="50" height="30" as="geometry" />
        </mxCell>
        <mxCell id="LHKfkxHCovBLvszqjP4N-62" value="" style="endArrow=none;html=1;rounded=0;" parent="1" source="LHKfkxHCovBLvszqjP4N-5" target="LHKfkxHCovBLvszqjP4N-25" edge="1">
          <mxGeometry width="50" height="50" relative="1" as="geometry">
            <mxPoint x="260" y="470" as="sourcePoint" />
            <mxPoint x="310" y="420" as="targetPoint" />
          </mxGeometry>
        </mxCell>
        <mxCell id="LHKfkxHCovBLvszqjP4N-63" value="" style="endArrow=none;html=1;rounded=0;entryX=0.5;entryY=1;entryDx=0;entryDy=0;exitX=0.5;exitY=0;exitDx=0;exitDy=0;" parent="1" source="LHKfkxHCovBLvszqjP4N-25" target="LHKfkxHCovBLvszqjP4N-27" edge="1">
          <mxGeometry width="50" height="50" relative="1" as="geometry">
            <mxPoint x="390" y="490" as="sourcePoint" />
            <mxPoint x="440" y="440" as="targetPoint" />
          </mxGeometry>
        </mxCell>
        <mxCell id="LHKfkxHCovBLvszqjP4N-64" value="(0,n)" style="text;html=1;align=center;verticalAlign=middle;resizable=0;points=[];autosize=1;strokeColor=none;fillColor=none;" parent="1" vertex="1">
          <mxGeometry x="300" y="495" width="50" height="30" as="geometry" />
        </mxCell>
        <mxCell id="LHKfkxHCovBLvszqjP4N-65" value="(o,n)" style="text;html=1;strokeColor=none;fillColor=none;align=center;verticalAlign=middle;whiteSpace=wrap;rounded=0;" parent="1" vertex="1">
          <mxGeometry x="345" y="410" width="60" height="30" as="geometry" />
        </mxCell>
        <mxCell id="LHKfkxHCovBLvszqjP4N-66" value="(0,n)" style="text;html=1;align=center;verticalAlign=middle;resizable=0;points=[];autosize=1;strokeColor=none;fillColor=none;" parent="1" vertex="1">
          <mxGeometry x="490" y="440" width="50" height="30" as="geometry" />
        </mxCell>
        <mxCell id="LHKfkxHCovBLvszqjP4N-67" value="(0,n)" style="text;html=1;strokeColor=none;fillColor=none;align=center;verticalAlign=middle;whiteSpace=wrap;rounded=0;" parent="1" vertex="1">
          <mxGeometry x="595" y="330" width="60" height="30" as="geometry" />
        </mxCell>
        <mxCell id="LHKfkxHCovBLvszqjP4N-68" value="(0,n)" style="text;html=1;align=center;verticalAlign=middle;resizable=0;points=[];autosize=1;strokeColor=none;fillColor=none;" parent="1" vertex="1">
          <mxGeometry x="502.5" y="650" width="50" height="30" as="geometry" />
        </mxCell>
        <mxCell id="LHKfkxHCovBLvszqjP4N-69" value="(1,1)" style="text;html=1;align=center;verticalAlign=middle;resizable=0;points=[];autosize=1;strokeColor=none;fillColor=none;" parent="1" vertex="1">
          <mxGeometry x="500" y="280" width="50" height="30" as="geometry" />
        </mxCell>
      </root>
    </mxGraphModel>
  </diagram>
  <diagram id="8z-uSvPBFnytKBNpQHT0" name="Diagramme d&#39;activitÃ© recherche fichier">
    <mxGraphModel grid="1" page="1" gridSize="10" guides="1" tooltips="1" connect="1" arrows="1" fold="1" pageScale="1" pageWidth="827" pageHeight="1169" math="0" shadow="0">
      <root>
        <mxCell id="0" />
        <mxCell id="1" parent="0" />
        <mxCell id="z6Cr9fZ1sqPfvJeswqqq-1" value="Pompier" style="text;html=1;align=center;verticalAlign=middle;resizable=0;points=[];autosize=1;strokeColor=none;fillColor=none;" vertex="1" parent="1">
          <mxGeometry x="145" y="68" width="70" height="30" as="geometry" />
        </mxCell>
        <mxCell id="z6Cr9fZ1sqPfvJeswqqq-2" value="Serveur" style="text;html=1;align=center;verticalAlign=middle;resizable=0;points=[];autosize=1;strokeColor=none;fillColor=none;" vertex="1" parent="1">
          <mxGeometry x="550" y="68" width="70" height="30" as="geometry" />
        </mxCell>
        <mxCell id="z6Cr9fZ1sqPfvJeswqqq-6" style="edgeStyle=orthogonalEdgeStyle;rounded=0;orthogonalLoop=1;jettySize=auto;html=1;entryX=0.5;entryY=0;entryDx=0;entryDy=0;endArrow=open;endFill=0;" edge="1" parent="1" source="z6Cr9fZ1sqPfvJeswqqq-4" target="z6Cr9fZ1sqPfvJeswqqq-5">
          <mxGeometry relative="1" as="geometry" />
        </mxCell>
        <mxCell id="z6Cr9fZ1sqPfvJeswqqq-17" style="edgeStyle=orthogonalEdgeStyle;rounded=0;orthogonalLoop=1;jettySize=auto;html=1;endArrow=open;endFill=0;" edge="1" parent="1" source="z6Cr9fZ1sqPfvJeswqqq-4">
          <mxGeometry relative="1" as="geometry">
            <mxPoint x="-100" y="420" as="targetPoint" />
          </mxGeometry>
        </mxCell>
        <mxCell id="z6Cr9fZ1sqPfvJeswqqq-4" value="SÃ©lectionne catÃ©gorie?" style="strokeWidth=2;html=1;shape=mxgraph.flowchart.decision;whiteSpace=wrap;" vertex="1" parent="1">
          <mxGeometry x="130" y="180" width="100" height="100" as="geometry" />
        </mxCell>
        <mxCell id="z6Cr9fZ1sqPfvJeswqqq-28" style="edgeStyle=orthogonalEdgeStyle;rounded=0;orthogonalLoop=1;jettySize=auto;html=1;endArrow=open;endFill=0;" edge="1" parent="1" source="z6Cr9fZ1sqPfvJeswqqq-5" target="z6Cr9fZ1sqPfvJeswqqq-27">
          <mxGeometry relative="1" as="geometry" />
        </mxCell>
        <mxCell id="z6Cr9fZ1sqPfvJeswqqq-5" value="Clique sur une catÃ©gorie" style="rounded=1;whiteSpace=wrap;html=1;absoluteArcSize=1;arcSize=14;strokeWidth=2;" vertex="1" parent="1">
          <mxGeometry x="100" y="310" width="160" height="40" as="geometry" />
        </mxCell>
        <mxCell id="z6Cr9fZ1sqPfvJeswqqq-7" value="[oui]" style="text;html=1;align=center;verticalAlign=middle;resizable=0;points=[];autosize=1;strokeColor=none;fillColor=none;" vertex="1" parent="1">
          <mxGeometry x="190" y="278" width="50" height="30" as="geometry" />
        </mxCell>
        <mxCell id="z6Cr9fZ1sqPfvJeswqqq-8" value="[non]" style="text;html=1;align=center;verticalAlign=middle;resizable=0;points=[];autosize=1;strokeColor=none;fillColor=none;" vertex="1" parent="1">
          <mxGeometry x="75" y="198" width="50" height="30" as="geometry" />
        </mxCell>
        <mxCell id="z6Cr9fZ1sqPfvJeswqqq-10" value="" style="ellipse;html=1;shape=endState;fillColor=#000000;strokeColor=#ff0000;" vertex="1" parent="1">
          <mxGeometry x="670" y="140" width="30" height="30" as="geometry" />
        </mxCell>
        <mxCell id="z6Cr9fZ1sqPfvJeswqqq-11" value="" style="ellipse;html=1;shape=startState;fillColor=#000000;strokeColor=#ff0000;" vertex="1" parent="1">
          <mxGeometry x="165" y="110" width="30" height="30" as="geometry" />
        </mxCell>
        <mxCell id="z6Cr9fZ1sqPfvJeswqqq-12" value="" style="edgeStyle=orthogonalEdgeStyle;html=1;verticalAlign=bottom;endArrow=open;endSize=8;strokeColor=#ff0000;rounded=0;entryX=0.5;entryY=0;entryDx=0;entryDy=0;entryPerimeter=0;" edge="1" parent="1" source="z6Cr9fZ1sqPfvJeswqqq-11" target="z6Cr9fZ1sqPfvJeswqqq-4">
          <mxGeometry relative="1" as="geometry">
            <mxPoint x="180" y="180" as="targetPoint" />
          </mxGeometry>
        </mxCell>
        <mxCell id="z6Cr9fZ1sqPfvJeswqqq-13" value="" style="ellipse;html=1;shape=endState;fillColor=#000000;strokeColor=#ff0000;" vertex="1" parent="1">
          <mxGeometry x="23" y="794" width="30" height="30" as="geometry" />
        </mxCell>
        <mxCell id="z6Cr9fZ1sqPfvJeswqqq-14" value="" style="shape=link;html=1;rounded=0;" edge="1" parent="1">
          <mxGeometry width="100" relative="1" as="geometry">
            <mxPoint x="-120" y="420" as="sourcePoint" />
            <mxPoint x="-20" y="420" as="targetPoint" />
            <Array as="points">
              <mxPoint x="-70" y="420" />
            </Array>
          </mxGeometry>
        </mxCell>
        <mxCell id="z6Cr9fZ1sqPfvJeswqqq-15" value="" style="shape=link;html=1;rounded=0;" edge="1" parent="1">
          <mxGeometry width="100" relative="1" as="geometry">
            <mxPoint x="-40" y="530" as="sourcePoint" />
            <mxPoint x="60" y="530" as="targetPoint" />
            <Array as="points">
              <mxPoint x="10" y="530" />
            </Array>
          </mxGeometry>
        </mxCell>
        <mxCell id="z6Cr9fZ1sqPfvJeswqqq-16" value="" style="shape=link;html=1;rounded=0;" edge="1" parent="1">
          <mxGeometry width="100" relative="1" as="geometry">
            <mxPoint x="-12" y="722" as="sourcePoint" />
            <mxPoint x="88" y="722" as="targetPoint" />
          </mxGeometry>
        </mxCell>
        <mxCell id="z6Cr9fZ1sqPfvJeswqqq-19" value="" style="edgeStyle=elbowEdgeStyle;elbow=vertical;endArrow=open;html=1;curved=0;rounded=0;endSize=8;startSize=8;endFill=0;" edge="1" parent="1">
          <mxGeometry width="50" height="50" relative="1" as="geometry">
            <mxPoint x="-80" y="420" as="sourcePoint" />
            <mxPoint x="-10" y="530" as="targetPoint" />
          </mxGeometry>
        </mxCell>
        <mxCell id="z6Cr9fZ1sqPfvJeswqqq-20" value="" style="edgeStyle=elbowEdgeStyle;elbow=vertical;endArrow=open;html=1;curved=0;rounded=0;endSize=8;startSize=8;endFill=0;" edge="1" parent="1">
          <mxGeometry width="50" height="50" relative="1" as="geometry">
            <mxPoint x="10" y="530" as="sourcePoint" />
            <mxPoint x="10" y="600" as="targetPoint" />
          </mxGeometry>
        </mxCell>
        <mxCell id="z6Cr9fZ1sqPfvJeswqqq-21" value="" style="edgeStyle=elbowEdgeStyle;elbow=vertical;endArrow=open;html=1;curved=0;rounded=0;endSize=8;startSize=8;endFill=0;" edge="1" parent="1">
          <mxGeometry width="50" height="50" relative="1" as="geometry">
            <mxPoint x="37.5" y="724" as="sourcePoint" />
            <mxPoint x="37.5" y="794" as="targetPoint" />
          </mxGeometry>
        </mxCell>
        <mxCell id="z6Cr9fZ1sqPfvJeswqqq-25" style="edgeStyle=orthogonalEdgeStyle;rounded=0;orthogonalLoop=1;jettySize=auto;html=1;exitX=0.5;exitY=1;exitDx=0;exitDy=0;exitPerimeter=0;endArrow=open;endFill=0;" edge="1" parent="1" source="z6Cr9fZ1sqPfvJeswqqq-22">
          <mxGeometry relative="1" as="geometry">
            <mxPoint x="10" y="720" as="targetPoint" />
          </mxGeometry>
        </mxCell>
        <mxCell id="z6Cr9fZ1sqPfvJeswqqq-41" style="edgeStyle=orthogonalEdgeStyle;rounded=0;orthogonalLoop=1;jettySize=auto;html=1;exitX=1;exitY=0.5;exitDx=0;exitDy=0;exitPerimeter=0;entryX=0;entryY=0.5;entryDx=0;entryDy=0;endArrow=open;endFill=0;" edge="1" parent="1" source="z6Cr9fZ1sqPfvJeswqqq-22" target="z6Cr9fZ1sqPfvJeswqqq-40">
          <mxGeometry relative="1" as="geometry" />
        </mxCell>
        <mxCell id="z6Cr9fZ1sqPfvJeswqqq-22" value="&lt;div&gt;Recherche&lt;/div&gt;&lt;div&gt;&amp;nbsp;par mot&lt;br&gt;&lt;/div&gt;" style="strokeWidth=2;html=1;shape=mxgraph.flowchart.decision;whiteSpace=wrap;" vertex="1" parent="1">
          <mxGeometry x="-40" y="590" width="100" height="100" as="geometry" />
        </mxCell>
        <mxCell id="z6Cr9fZ1sqPfvJeswqqq-24" value="[non]" style="text;html=1;align=center;verticalAlign=middle;resizable=0;points=[];autosize=1;strokeColor=none;fillColor=none;" vertex="1" parent="1">
          <mxGeometry x="-40" y="690" width="50" height="30" as="geometry" />
        </mxCell>
        <mxCell id="z6Cr9fZ1sqPfvJeswqqq-42" style="edgeStyle=orthogonalEdgeStyle;rounded=0;orthogonalLoop=1;jettySize=auto;html=1;exitX=0.5;exitY=1;exitDx=0;exitDy=0;exitPerimeter=0;entryX=0;entryY=0.5;entryDx=0;entryDy=0;" edge="1" parent="1" source="z6Cr9fZ1sqPfvJeswqqq-43" target="z6Cr9fZ1sqPfvJeswqqq-43">
          <mxGeometry relative="1" as="geometry">
            <mxPoint x="205" y="443" as="sourcePoint" />
            <mxPoint x="440" y="459" as="targetPoint" />
            <Array as="points">
              <mxPoint x="320" y="459" />
              <mxPoint x="345" y="459" />
            </Array>
          </mxGeometry>
        </mxCell>
        <mxCell id="z6Cr9fZ1sqPfvJeswqqq-46" style="edgeStyle=orthogonalEdgeStyle;rounded=0;orthogonalLoop=1;jettySize=auto;html=1;exitX=0;exitY=0.5;exitDx=0;exitDy=0;exitPerimeter=0;endArrow=open;endFill=0;" edge="1" parent="1" source="z6Cr9fZ1sqPfvJeswqqq-26" target="z6Cr9fZ1sqPfvJeswqqq-45">
          <mxGeometry relative="1" as="geometry" />
        </mxCell>
        <mxCell id="z6Cr9fZ1sqPfvJeswqqq-26" value="SÃ©lectionne un fichier?" style="strokeWidth=2;html=1;shape=mxgraph.flowchart.decision;whiteSpace=wrap;" vertex="1" parent="1">
          <mxGeometry x="160" y="356" width="90" height="88" as="geometry" />
        </mxCell>
        <mxCell id="z6Cr9fZ1sqPfvJeswqqq-31" style="edgeStyle=orthogonalEdgeStyle;rounded=0;orthogonalLoop=1;jettySize=auto;html=1;exitX=1;exitY=0.5;exitDx=0;exitDy=0;exitPerimeter=0;endArrow=open;endFill=0;" edge="1" parent="1" source="JRcKPp59ztbbG3QPF_bN-21">
          <mxGeometry relative="1" as="geometry">
            <mxPoint x="670" y="270" as="targetPoint" />
          </mxGeometry>
        </mxCell>
        <mxCell id="z6Cr9fZ1sqPfvJeswqqq-27" value="Affiche sous catÃ©gorie" style="rounded=1;whiteSpace=wrap;html=1;absoluteArcSize=1;arcSize=14;strokeWidth=2;" vertex="1" parent="1">
          <mxGeometry x="450" y="290" width="160" height="40" as="geometry" />
        </mxCell>
        <mxCell id="z6Cr9fZ1sqPfvJeswqqq-29" value="" style="shape=link;html=1;rounded=0;" edge="1" parent="1">
          <mxGeometry width="100" relative="1" as="geometry">
            <mxPoint x="640" y="260" as="sourcePoint" />
            <mxPoint x="740" y="260" as="targetPoint" />
            <Array as="points">
              <mxPoint x="690" y="260" />
            </Array>
          </mxGeometry>
        </mxCell>
        <mxCell id="z6Cr9fZ1sqPfvJeswqqq-30" value="" style="edgeStyle=elbowEdgeStyle;elbow=vertical;endArrow=open;html=1;curved=0;rounded=0;endSize=8;startSize=8;entryX=0.5;entryY=1;entryDx=0;entryDy=0;endFill=0;" edge="1" parent="1" target="z6Cr9fZ1sqPfvJeswqqq-10">
          <mxGeometry width="50" height="50" relative="1" as="geometry">
            <mxPoint x="685" y="260" as="sourcePoint" />
            <mxPoint x="510" y="340" as="targetPoint" />
          </mxGeometry>
        </mxCell>
        <mxCell id="JRcKPp59ztbbG3QPF_bN-1" style="edgeStyle=orthogonalEdgeStyle;rounded=0;orthogonalLoop=1;jettySize=auto;html=1;exitX=1;exitY=0.5;exitDx=0;exitDy=0;entryX=0;entryY=0.5;entryDx=0;entryDy=0;endArrow=open;endFill=0;" edge="1" parent="1" source="z6Cr9fZ1sqPfvJeswqqq-32" target="vlZoutGXtsKHPSaI4IMC-27">
          <mxGeometry relative="1" as="geometry" />
        </mxCell>
        <mxCell id="z6Cr9fZ1sqPfvJeswqqq-32" value="Affiche fichiers" style="rounded=1;whiteSpace=wrap;html=1;absoluteArcSize=1;arcSize=14;strokeWidth=2;" vertex="1" parent="1">
          <mxGeometry x="440" y="445" width="160" height="30" as="geometry" />
        </mxCell>
        <mxCell id="z6Cr9fZ1sqPfvJeswqqq-34" value="Affiche fichier plus vue sous catÃ©gorie" style="rounded=1;whiteSpace=wrap;html=1;absoluteArcSize=1;arcSize=14;strokeWidth=2;" vertex="1" parent="1">
          <mxGeometry x="440" y="575" width="160" height="35" as="geometry" />
        </mxCell>
        <mxCell id="z6Cr9fZ1sqPfvJeswqqq-35" value="&lt;div&gt;Affiche fichiers&lt;/div&gt;&lt;div&gt;plus vas dans catÃ©gorie&lt;br&gt;&lt;/div&gt;" style="rounded=1;whiteSpace=wrap;html=1;absoluteArcSize=1;arcSize=14;strokeWidth=2;" vertex="1" parent="1">
          <mxGeometry x="450" y="380" width="160" height="40" as="geometry" />
        </mxCell>
        <mxCell id="z6Cr9fZ1sqPfvJeswqqq-36" style="edgeStyle=orthogonalEdgeStyle;rounded=0;orthogonalLoop=1;jettySize=auto;html=1;entryX=1;entryY=0.5;entryDx=0;entryDy=0;entryPerimeter=0;endArrow=open;endFill=0;" edge="1" parent="1" source="z6Cr9fZ1sqPfvJeswqqq-35" target="z6Cr9fZ1sqPfvJeswqqq-26">
          <mxGeometry relative="1" as="geometry" />
        </mxCell>
        <mxCell id="z6Cr9fZ1sqPfvJeswqqq-37" value="[oui]" style="text;html=1;align=center;verticalAlign=middle;resizable=0;points=[];autosize=1;strokeColor=none;fillColor=none;" vertex="1" parent="1">
          <mxGeometry x="220" y="430" width="50" height="30" as="geometry" />
        </mxCell>
        <mxCell id="z6Cr9fZ1sqPfvJeswqqq-38" value="[non]" style="text;html=1;align=center;verticalAlign=middle;resizable=0;points=[];autosize=1;strokeColor=none;fillColor=none;" vertex="1" parent="1">
          <mxGeometry x="120" y="370" width="50" height="30" as="geometry" />
        </mxCell>
        <mxCell id="z6Cr9fZ1sqPfvJeswqqq-39" value="[oui]" style="text;html=1;align=center;verticalAlign=middle;resizable=0;points=[];autosize=1;strokeColor=none;fillColor=none;" vertex="1" parent="1">
          <mxGeometry x="50" y="610" width="50" height="30" as="geometry" />
        </mxCell>
        <mxCell id="JRcKPp59ztbbG3QPF_bN-6" style="edgeStyle=orthogonalEdgeStyle;rounded=0;orthogonalLoop=1;jettySize=auto;html=1;exitX=1;exitY=0.5;exitDx=0;exitDy=0;entryX=0;entryY=0.75;entryDx=0;entryDy=0;endArrow=open;endFill=0;" edge="1" parent="1" source="z6Cr9fZ1sqPfvJeswqqq-40" target="vlZoutGXtsKHPSaI4IMC-6">
          <mxGeometry relative="1" as="geometry">
            <Array as="points">
              <mxPoint x="215" y="660" />
              <mxPoint x="327" y="660" />
              <mxPoint x="327" y="680" />
              <mxPoint x="410" y="680" />
              <mxPoint x="410" y="711" />
            </Array>
          </mxGeometry>
        </mxCell>
        <mxCell id="z6Cr9fZ1sqPfvJeswqqq-40" value="Ãcrit un mot" style="rounded=1;whiteSpace=wrap;html=1;absoluteArcSize=1;arcSize=14;strokeWidth=2;" vertex="1" parent="1">
          <mxGeometry x="115" y="617.5" width="100" height="45" as="geometry" />
        </mxCell>
        <mxCell id="JRcKPp59ztbbG3QPF_bN-3" style="edgeStyle=orthogonalEdgeStyle;rounded=0;orthogonalLoop=1;jettySize=auto;html=1;exitX=0.5;exitY=1;exitDx=0;exitDy=0;exitPerimeter=0;endArrow=open;endFill=0;" edge="1" parent="1" source="z6Cr9fZ1sqPfvJeswqqq-44" target="vlZoutGXtsKHPSaI4IMC-5">
          <mxGeometry relative="1" as="geometry">
            <Array as="points">
              <mxPoint x="285" y="645" />
            </Array>
          </mxGeometry>
        </mxCell>
        <mxCell id="JRcKPp59ztbbG3QPF_bN-4" style="edgeStyle=orthogonalEdgeStyle;rounded=0;orthogonalLoop=1;jettySize=auto;html=1;endArrow=open;endFill=0;" edge="1" parent="1" source="z6Cr9fZ1sqPfvJeswqqq-44">
          <mxGeometry relative="1" as="geometry">
            <mxPoint x="30" y="520" as="targetPoint" />
            <Array as="points">
              <mxPoint x="285" y="510" />
              <mxPoint x="31" y="510" />
              <mxPoint x="31" y="520" />
            </Array>
          </mxGeometry>
        </mxCell>
        <mxCell id="z6Cr9fZ1sqPfvJeswqqq-44" value="SÃ©lectionne catÃ©gorie?" style="strokeWidth=2;html=1;shape=mxgraph.flowchart.decision;whiteSpace=wrap;" vertex="1" parent="1">
          <mxGeometry x="250" y="570" width="70" height="70" as="geometry" />
        </mxCell>
        <mxCell id="z6Cr9fZ1sqPfvJeswqqq-47" style="edgeStyle=orthogonalEdgeStyle;rounded=0;orthogonalLoop=1;jettySize=auto;html=1;exitX=0;exitY=0.5;exitDx=0;exitDy=0;exitPerimeter=0;endArrow=open;endFill=0;" edge="1" parent="1" source="z6Cr9fZ1sqPfvJeswqqq-45">
          <mxGeometry relative="1" as="geometry">
            <mxPoint x="-60" y="420" as="targetPoint" />
            <Array as="points">
              <mxPoint x="-60" y="400" />
            </Array>
          </mxGeometry>
        </mxCell>
        <mxCell id="vlZoutGXtsKHPSaI4IMC-2" style="edgeStyle=orthogonalEdgeStyle;rounded=0;orthogonalLoop=1;jettySize=auto;html=1;exitX=0.5;exitY=1;exitDx=0;exitDy=0;exitPerimeter=0;entryX=0;entryY=0.5;entryDx=0;entryDy=0;endArrow=open;endFill=0;" edge="1" parent="1" source="z6Cr9fZ1sqPfvJeswqqq-45" target="kQJcJdf3YQxTghMK5b4R-1">
          <mxGeometry relative="1" as="geometry" />
        </mxCell>
        <mxCell id="z6Cr9fZ1sqPfvJeswqqq-45" value="&lt;div&gt;SÃ©lectionne&lt;/div&gt;&lt;div&gt;sous catÃ©gorie&lt;br&gt;&lt;/div&gt;" style="strokeWidth=2;html=1;shape=mxgraph.flowchart.decision;whiteSpace=wrap;" vertex="1" parent="1">
          <mxGeometry x="10" y="365" width="70" height="70" as="geometry" />
        </mxCell>
        <mxCell id="z6Cr9fZ1sqPfvJeswqqq-48" value="[oui]" style="text;html=1;align=center;verticalAlign=middle;resizable=0;points=[];autosize=1;strokeColor=none;fillColor=none;rotation=0;" vertex="1" parent="1">
          <mxGeometry x="70" y="414" width="50" height="30" as="geometry" />
        </mxCell>
        <mxCell id="z6Cr9fZ1sqPfvJeswqqq-49" value="[non]" style="text;html=1;align=center;verticalAlign=middle;resizable=0;points=[];autosize=1;strokeColor=none;fillColor=none;" vertex="1" parent="1">
          <mxGeometry x="-40" y="370" width="50" height="30" as="geometry" />
        </mxCell>
        <mxCell id="z6Cr9fZ1sqPfvJeswqqq-50" value="" style="edgeStyle=orthogonalEdgeStyle;rounded=0;orthogonalLoop=1;jettySize=auto;html=1;exitX=0.5;exitY=1;exitDx=0;exitDy=0;exitPerimeter=0;entryX=0;entryY=0.5;entryDx=0;entryDy=0;endArrow=open;endFill=0;" edge="1" parent="1" target="z6Cr9fZ1sqPfvJeswqqq-43">
          <mxGeometry relative="1" as="geometry">
            <mxPoint x="205" y="443" as="sourcePoint" />
            <mxPoint x="440" y="459" as="targetPoint" />
            <Array as="points">
              <mxPoint x="205" y="460" />
            </Array>
          </mxGeometry>
        </mxCell>
        <mxCell id="z6Cr9fZ1sqPfvJeswqqq-51" style="edgeStyle=orthogonalEdgeStyle;rounded=0;orthogonalLoop=1;jettySize=auto;html=1;entryX=0;entryY=0.5;entryDx=0;entryDy=0;endArrow=open;endFill=0;" edge="1" parent="1" source="z6Cr9fZ1sqPfvJeswqqq-43" target="z6Cr9fZ1sqPfvJeswqqq-32">
          <mxGeometry relative="1" as="geometry" />
        </mxCell>
        <mxCell id="z6Cr9fZ1sqPfvJeswqqq-43" value="clique sur un fichier" style="rounded=1;whiteSpace=wrap;html=1;absoluteArcSize=1;arcSize=14;strokeWidth=2;" vertex="1" parent="1">
          <mxGeometry x="270" y="437.5" width="100" height="45" as="geometry" />
        </mxCell>
        <mxCell id="vlZoutGXtsKHPSaI4IMC-4" style="edgeStyle=orthogonalEdgeStyle;rounded=0;orthogonalLoop=1;jettySize=auto;html=1;exitX=1;exitY=0.5;exitDx=0;exitDy=0;endArrow=open;endFill=0;" edge="1" parent="1" source="kQJcJdf3YQxTghMK5b4R-1" target="vlZoutGXtsKHPSaI4IMC-3">
          <mxGeometry relative="1" as="geometry">
            <Array as="points">
              <mxPoint x="165" y="500" />
              <mxPoint x="303" y="500" />
              <mxPoint x="303" y="515" />
            </Array>
          </mxGeometry>
        </mxCell>
        <mxCell id="kQJcJdf3YQxTghMK5b4R-1" value="clique sur une sous catÃ©gorie " style="rounded=1;whiteSpace=wrap;html=1;absoluteArcSize=1;arcSize=14;strokeWidth=2;" vertex="1" parent="1">
          <mxGeometry x="65" y="460" width="100" height="45" as="geometry" />
        </mxCell>
        <mxCell id="vlZoutGXtsKHPSaI4IMC-3" value="Afficher sous catÃ©gorie" style="rounded=1;whiteSpace=wrap;html=1;absoluteArcSize=1;arcSize=14;strokeWidth=2;" vertex="1" parent="1">
          <mxGeometry x="440" y="500" width="160" height="30" as="geometry" />
        </mxCell>
        <mxCell id="JRcKPp59ztbbG3QPF_bN-8" style="edgeStyle=orthogonalEdgeStyle;rounded=0;orthogonalLoop=1;jettySize=auto;html=1;exitX=1;exitY=0.5;exitDx=0;exitDy=0;endArrow=open;endFill=0;" edge="1" parent="1" source="vlZoutGXtsKHPSaI4IMC-5" target="JRcKPp59ztbbG3QPF_bN-7">
          <mxGeometry relative="1" as="geometry" />
        </mxCell>
        <mxCell id="vlZoutGXtsKHPSaI4IMC-5" value="Afficher fichier" style="rounded=1;whiteSpace=wrap;html=1;absoluteArcSize=1;arcSize=14;strokeWidth=2;" vertex="1" parent="1">
          <mxGeometry x="440" y="627.5" width="160" height="35" as="geometry" />
        </mxCell>
        <mxCell id="vlZoutGXtsKHPSaI4IMC-19" style="edgeStyle=orthogonalEdgeStyle;rounded=0;orthogonalLoop=1;jettySize=auto;html=1;exitX=1;exitY=0.5;exitDx=0;exitDy=0;endArrow=open;endFill=0;" edge="1" parent="1" source="vlZoutGXtsKHPSaI4IMC-6" target="vlZoutGXtsKHPSaI4IMC-17">
          <mxGeometry relative="1" as="geometry" />
        </mxCell>
        <mxCell id="vlZoutGXtsKHPSaI4IMC-6" value="Rechercher fichier avec correspond" style="rounded=1;whiteSpace=wrap;html=1;absoluteArcSize=1;arcSize=14;strokeWidth=2;" vertex="1" parent="1">
          <mxGeometry x="440" y="685" width="160" height="35" as="geometry" />
        </mxCell>
        <mxCell id="vlZoutGXtsKHPSaI4IMC-11" style="edgeStyle=orthogonalEdgeStyle;rounded=0;orthogonalLoop=1;jettySize=auto;html=1;entryX=0;entryY=0.5;entryDx=0;entryDy=0;endArrow=open;endFill=0;" edge="1" parent="1" source="vlZoutGXtsKHPSaI4IMC-7" target="vlZoutGXtsKHPSaI4IMC-10">
          <mxGeometry relative="1" as="geometry" />
        </mxCell>
        <mxCell id="vlZoutGXtsKHPSaI4IMC-7" value="Afficher le fichier" style="rounded=1;whiteSpace=wrap;html=1;absoluteArcSize=1;arcSize=14;strokeWidth=2;" vertex="1" parent="1">
          <mxGeometry x="430" y="794" width="160" height="35" as="geometry" />
        </mxCell>
        <mxCell id="vlZoutGXtsKHPSaI4IMC-9" style="edgeStyle=orthogonalEdgeStyle;rounded=0;orthogonalLoop=1;jettySize=auto;html=1;exitX=1;exitY=0.5;exitDx=0;exitDy=0;exitPerimeter=0;entryX=0;entryY=0.5;entryDx=0;entryDy=0;endArrow=open;endFill=0;" edge="1" parent="1" source="vlZoutGXtsKHPSaI4IMC-8" target="vlZoutGXtsKHPSaI4IMC-7">
          <mxGeometry relative="1" as="geometry" />
        </mxCell>
        <mxCell id="vlZoutGXtsKHPSaI4IMC-16" style="edgeStyle=orthogonalEdgeStyle;rounded=0;orthogonalLoop=1;jettySize=auto;html=1;exitX=0;exitY=0.5;exitDx=0;exitDy=0;exitPerimeter=0;endArrow=open;endFill=0;" edge="1" parent="1" source="vlZoutGXtsKHPSaI4IMC-8">
          <mxGeometry relative="1" as="geometry">
            <mxPoint x="50" y="720" as="targetPoint" />
            <Array as="points">
              <mxPoint x="110" y="757" />
              <mxPoint x="110" y="680" />
              <mxPoint x="50" y="680" />
            </Array>
          </mxGeometry>
        </mxCell>
        <mxCell id="vlZoutGXtsKHPSaI4IMC-8" value="choisis fichier?" style="strokeWidth=2;html=1;shape=mxgraph.flowchart.decision;whiteSpace=wrap;" vertex="1" parent="1">
          <mxGeometry x="260" y="722.5" width="70" height="70" as="geometry" />
        </mxCell>
        <mxCell id="vlZoutGXtsKHPSaI4IMC-10" value="" style="ellipse;html=1;shape=endState;fillColor=#000000;strokeColor=#ff0000;" vertex="1" parent="1">
          <mxGeometry x="700" y="796.5" width="30" height="30" as="geometry" />
        </mxCell>
        <mxCell id="vlZoutGXtsKHPSaI4IMC-12" value="Afficher le fichier" style="rounded=1;whiteSpace=wrap;html=1;absoluteArcSize=1;arcSize=14;strokeWidth=2;" vertex="1" parent="1">
          <mxGeometry x="670" y="720" width="130" height="35" as="geometry" />
        </mxCell>
        <mxCell id="vlZoutGXtsKHPSaI4IMC-13" style="edgeStyle=orthogonalEdgeStyle;rounded=0;orthogonalLoop=1;jettySize=auto;html=1;entryX=0.5;entryY=0;entryDx=0;entryDy=0;entryPerimeter=0;endArrow=open;endFill=0;" edge="1" parent="1" source="vlZoutGXtsKHPSaI4IMC-12" target="vlZoutGXtsKHPSaI4IMC-8">
          <mxGeometry relative="1" as="geometry">
            <Array as="points">
              <mxPoint x="370" y="737" />
              <mxPoint x="370" y="710" />
              <mxPoint x="295" y="710" />
            </Array>
          </mxGeometry>
        </mxCell>
        <mxCell id="vlZoutGXtsKHPSaI4IMC-14" value="[oui]" style="text;html=1;align=center;verticalAlign=middle;resizable=0;points=[];autosize=1;strokeColor=none;fillColor=none;" vertex="1" parent="1">
          <mxGeometry x="310" y="766.5" width="50" height="30" as="geometry" />
        </mxCell>
        <mxCell id="vlZoutGXtsKHPSaI4IMC-15" value="[non]" style="text;html=1;align=center;verticalAlign=middle;resizable=0;points=[];autosize=1;strokeColor=none;fillColor=none;" vertex="1" parent="1">
          <mxGeometry x="215" y="762.5" width="50" height="30" as="geometry" />
        </mxCell>
        <mxCell id="vlZoutGXtsKHPSaI4IMC-18" style="edgeStyle=orthogonalEdgeStyle;rounded=0;orthogonalLoop=1;jettySize=auto;html=1;entryX=0.5;entryY=0;entryDx=0;entryDy=0;endArrow=open;endFill=0;" edge="1" parent="1" source="vlZoutGXtsKHPSaI4IMC-17" target="vlZoutGXtsKHPSaI4IMC-12">
          <mxGeometry relative="1" as="geometry">
            <Array as="points">
              <mxPoint x="735" y="690" />
            </Array>
          </mxGeometry>
        </mxCell>
        <mxCell id="vlZoutGXtsKHPSaI4IMC-24" style="edgeStyle=orthogonalEdgeStyle;rounded=0;orthogonalLoop=1;jettySize=auto;html=1;exitX=0.5;exitY=0;exitDx=0;exitDy=0;exitPerimeter=0;endArrow=open;endFill=0;" edge="1" parent="1" source="vlZoutGXtsKHPSaI4IMC-17">
          <mxGeometry relative="1" as="geometry">
            <mxPoint x="670.0000000000002" y="480" as="targetPoint" />
          </mxGeometry>
        </mxCell>
        <mxCell id="vlZoutGXtsKHPSaI4IMC-17" value="Fichier trouvÃ©" style="strokeWidth=2;html=1;shape=mxgraph.flowchart.decision;whiteSpace=wrap;" vertex="1" parent="1">
          <mxGeometry x="650" y="680" width="120" height="20" as="geometry" />
        </mxCell>
        <mxCell id="vlZoutGXtsKHPSaI4IMC-22" style="edgeStyle=orthogonalEdgeStyle;rounded=0;orthogonalLoop=1;jettySize=auto;html=1;exitX=0.5;exitY=1;exitDx=0;exitDy=0;exitPerimeter=0;entryX=0.5;entryY=0;entryDx=0;entryDy=0;endArrow=open;endFill=0;" edge="1" parent="1" source="vlZoutGXtsKHPSaI4IMC-20" target="z6Cr9fZ1sqPfvJeswqqq-34">
          <mxGeometry relative="1" as="geometry" />
        </mxCell>
        <mxCell id="vlZoutGXtsKHPSaI4IMC-23" style="edgeStyle=orthogonalEdgeStyle;rounded=0;orthogonalLoop=1;jettySize=auto;html=1;exitX=1;exitY=0.5;exitDx=0;exitDy=0;exitPerimeter=0;endArrow=open;endFill=0;" edge="1" parent="1" source="vlZoutGXtsKHPSaI4IMC-20">
          <mxGeometry relative="1" as="geometry">
            <mxPoint x="650.0000000000002" y="480" as="targetPoint" />
          </mxGeometry>
        </mxCell>
        <mxCell id="vlZoutGXtsKHPSaI4IMC-20" value="Fichier trouvÃ©" style="strokeWidth=2;html=1;shape=mxgraph.flowchart.decision;whiteSpace=wrap;" vertex="1" parent="1">
          <mxGeometry x="470" y="540" width="100" height="20" as="geometry" />
        </mxCell>
        <mxCell id="vlZoutGXtsKHPSaI4IMC-21" style="edgeStyle=orthogonalEdgeStyle;rounded=0;orthogonalLoop=1;jettySize=auto;html=1;exitX=0.5;exitY=1;exitDx=0;exitDy=0;entryX=0.5;entryY=0;entryDx=0;entryDy=0;entryPerimeter=0;endArrow=open;endFill=0;" edge="1" parent="1" source="vlZoutGXtsKHPSaI4IMC-3" target="vlZoutGXtsKHPSaI4IMC-20">
          <mxGeometry relative="1" as="geometry" />
        </mxCell>
        <mxCell id="vlZoutGXtsKHPSaI4IMC-25" value="" style="shape=link;html=1;rounded=0;" edge="1" parent="1">
          <mxGeometry width="100" relative="1" as="geometry">
            <mxPoint x="630" y="475" as="sourcePoint" />
            <mxPoint x="695" y="475" as="targetPoint" />
            <Array as="points">
              <mxPoint x="680" y="475" />
            </Array>
          </mxGeometry>
        </mxCell>
        <mxCell id="vlZoutGXtsKHPSaI4IMC-26" value="" style="edgeStyle=elbowEdgeStyle;elbow=vertical;endArrow=open;html=1;curved=0;rounded=0;endSize=8;startSize=8;endFill=0;" edge="1" parent="1">
          <mxGeometry width="50" height="50" relative="1" as="geometry">
            <mxPoint x="660" y="470" as="sourcePoint" />
            <mxPoint x="710" y="260" as="targetPoint" />
          </mxGeometry>
        </mxCell>
        <mxCell id="vlZoutGXtsKHPSaI4IMC-27" value="" style="ellipse;html=1;shape=endState;fillColor=#000000;strokeColor=#ff0000;" vertex="1" parent="1">
          <mxGeometry x="740" y="430" width="30" height="30" as="geometry" />
        </mxCell>
        <mxCell id="JRcKPp59ztbbG3QPF_bN-2" style="edgeStyle=orthogonalEdgeStyle;rounded=0;orthogonalLoop=1;jettySize=auto;html=1;exitX=0;exitY=0.5;exitDx=0;exitDy=0;entryX=1;entryY=0.5;entryDx=0;entryDy=0;entryPerimeter=0;endArrow=open;endFill=0;" edge="1" parent="1" source="z6Cr9fZ1sqPfvJeswqqq-34" target="z6Cr9fZ1sqPfvJeswqqq-44">
          <mxGeometry relative="1" as="geometry" />
        </mxCell>
        <mxCell id="JRcKPp59ztbbG3QPF_bN-7" value="" style="ellipse;html=1;shape=endState;fillColor=#000000;strokeColor=#ff0000;" vertex="1" parent="1">
          <mxGeometry x="710" y="632.5" width="30" height="30" as="geometry" />
        </mxCell>
        <mxCell id="JRcKPp59ztbbG3QPF_bN-9" value="[non]" style="text;html=1;align=center;verticalAlign=middle;resizable=0;points=[];autosize=1;strokeColor=none;fillColor=none;" vertex="1" parent="1">
          <mxGeometry x="240" y="545" width="50" height="30" as="geometry" />
        </mxCell>
        <mxCell id="JRcKPp59ztbbG3QPF_bN-10" value="[oui]" style="text;html=1;align=center;verticalAlign=middle;resizable=0;points=[];autosize=1;strokeColor=none;fillColor=none;" vertex="1" parent="1">
          <mxGeometry x="290" y="617.5" width="50" height="30" as="geometry" />
        </mxCell>
        <mxCell id="JRcKPp59ztbbG3QPF_bN-11" value="[oui]" style="text;html=1;align=center;verticalAlign=middle;resizable=0;points=[];autosize=1;strokeColor=none;fillColor=none;" vertex="1" parent="1">
          <mxGeometry x="730" y="692.5" width="50" height="30" as="geometry" />
        </mxCell>
        <mxCell id="JRcKPp59ztbbG3QPF_bN-12" value="[non]" style="text;html=1;align=center;verticalAlign=middle;resizable=0;points=[];autosize=1;strokeColor=none;fillColor=none;" vertex="1" parent="1">
          <mxGeometry x="660" y="655" width="50" height="30" as="geometry" />
        </mxCell>
        <mxCell id="JRcKPp59ztbbG3QPF_bN-13" value="[oui]" style="text;html=1;align=center;verticalAlign=middle;resizable=0;points=[];autosize=1;strokeColor=none;fillColor=none;" vertex="1" parent="1">
          <mxGeometry x="470" y="555" width="50" height="30" as="geometry" />
        </mxCell>
        <mxCell id="JRcKPp59ztbbG3QPF_bN-15" value="[non]" style="text;html=1;align=center;verticalAlign=middle;resizable=0;points=[];autosize=1;strokeColor=none;fillColor=none;" vertex="1" parent="1">
          <mxGeometry x="530" y="525" width="50" height="30" as="geometry" />
        </mxCell>
        <mxCell id="JRcKPp59ztbbG3QPF_bN-16" value="Aucun fichier trouvÃ©" style="text;html=1;align=center;verticalAlign=middle;resizable=0;points=[];autosize=1;strokeColor=none;fillColor=none;" vertex="1" parent="1">
          <mxGeometry x="630" y="110" width="130" height="30" as="geometry" />
        </mxCell>
        <mxCell id="JRcKPp59ztbbG3QPF_bN-17" value="Fichier sÃ©lectionnÃ© dans la catÃ©gorie " style="text;html=1;align=center;verticalAlign=middle;resizable=0;points=[];autosize=1;strokeColor=none;fillColor=none;" vertex="1" parent="1">
          <mxGeometry x="680" y="400" width="220" height="30" as="geometry" />
        </mxCell>
        <mxCell id="JRcKPp59ztbbG3QPF_bN-18" value="Fichier sÃ©lectionnÃ© dans la sous catÃ©gorie " style="text;html=1;align=center;verticalAlign=middle;resizable=0;points=[];autosize=1;strokeColor=none;fillColor=none;" vertex="1" parent="1">
          <mxGeometry x="680" y="597.5" width="250" height="30" as="geometry" />
        </mxCell>
        <mxCell id="JRcKPp59ztbbG3QPF_bN-19" value="SÃ©lectionnÃ© un fichier par mot" style="text;html=1;align=center;verticalAlign=middle;resizable=0;points=[];autosize=1;strokeColor=none;fillColor=none;" vertex="1" parent="1">
          <mxGeometry x="635" y="829" width="180" height="30" as="geometry" />
        </mxCell>
        <mxCell id="JRcKPp59ztbbG3QPF_bN-20" value="Aucun fichier selectionnÃ©" style="text;html=1;align=center;verticalAlign=middle;resizable=0;points=[];autosize=1;strokeColor=none;fillColor=none;" vertex="1" parent="1">
          <mxGeometry x="-42" y="829" width="160" height="30" as="geometry" />
        </mxCell>
        <mxCell id="JRcKPp59ztbbG3QPF_bN-23" style="edgeStyle=orthogonalEdgeStyle;rounded=0;orthogonalLoop=1;jettySize=auto;html=1;exitX=0.5;exitY=1;exitDx=0;exitDy=0;exitPerimeter=0;entryX=0.5;entryY=0;entryDx=0;entryDy=0;endArrow=open;endFill=0;" edge="1" parent="1" source="JRcKPp59ztbbG3QPF_bN-21" target="z6Cr9fZ1sqPfvJeswqqq-35">
          <mxGeometry relative="1" as="geometry" />
        </mxCell>
        <mxCell id="JRcKPp59ztbbG3QPF_bN-21" value="Fichier trouvÃ©" style="strokeWidth=2;html=1;shape=mxgraph.flowchart.decision;whiteSpace=wrap;" vertex="1" parent="1">
          <mxGeometry x="480" y="340" width="100" height="30" as="geometry" />
        </mxCell>
        <mxCell id="JRcKPp59ztbbG3QPF_bN-22" style="edgeStyle=orthogonalEdgeStyle;rounded=0;orthogonalLoop=1;jettySize=auto;html=1;exitX=0.5;exitY=1;exitDx=0;exitDy=0;entryX=0.5;entryY=0;entryDx=0;entryDy=0;entryPerimeter=0;endArrow=open;endFill=0;" edge="1" parent="1" source="z6Cr9fZ1sqPfvJeswqqq-27" target="JRcKPp59ztbbG3QPF_bN-21">
          <mxGeometry relative="1" as="geometry" />
        </mxCell>
        <mxCell id="JRcKPp59ztbbG3QPF_bN-24" value="[non]" style="text;html=1;align=center;verticalAlign=middle;resizable=0;points=[];autosize=1;strokeColor=none;fillColor=none;" vertex="1" parent="1">
          <mxGeometry x="570" y="330" width="50" height="30" as="geometry" />
        </mxCell>
        <mxCell id="JRcKPp59ztbbG3QPF_bN-25" value="[oui]" style="text;html=1;align=center;verticalAlign=middle;resizable=0;points=[];autosize=1;strokeColor=none;fillColor=none;" vertex="1" parent="1">
          <mxGeometry x="470" y="356" width="50" height="30" as="geometry" />
        </mxCell>
        <mxCell id="lXhtFLRVCIOvdc-ICqDC-1" value="" style="endArrow=none;html=1;rounded=0;strokeWidth=4;" edge="1" parent="1">
          <mxGeometry width="50" height="50" relative="1" as="geometry">
            <mxPoint x="393" y="942" as="sourcePoint" />
            <mxPoint x="393" y="42" as="targetPoint" />
          </mxGeometry>
        </mxCell>
      </root>
    </mxGraphModel>
  </diagram>
  <diagram id="FVm3f9ag5DpiUHOKceVF" name="diagramme gestion fichier">
    <mxGraphModel grid="1" page="1" gridSize="10" guides="1" tooltips="1" connect="1" arrows="1" fold="1" pageScale="1" pageWidth="827" pageHeight="1169" math="0" shadow="0">
      <root>
        <mxCell id="0" />
        <mxCell id="1" parent="0" />
        <mxCell id="gADuoZYaXdmKBfNYRbOV-1" value="" style="endArrow=none;html=1;rounded=0;" edge="1" parent="1">
          <mxGeometry width="50" height="50" relative="1" as="geometry">
            <mxPoint x="400" y="930" as="sourcePoint" />
            <mxPoint x="400" y="80" as="targetPoint" />
          </mxGeometry>
        </mxCell>
        <mxCell id="oyJoT-U0twaeRUUnq7s7-4" value="" style="endArrow=none;html=1;rounded=0;strokeWidth=4;" edge="1" parent="1">
          <mxGeometry width="50" height="50" relative="1" as="geometry">
            <mxPoint x="400" y="830" as="sourcePoint" />
            <mxPoint x="400" y="40" as="targetPoint" />
          </mxGeometry>
        </mxCell>
        <mxCell id="oyJoT-U0twaeRUUnq7s7-5" value="&lt;div&gt;&lt;b&gt;&lt;u&gt;Administrateur&lt;/u&gt;&lt;/b&gt;&lt;/div&gt;" style="text;html=1;align=center;verticalAlign=middle;resizable=0;points=[];autosize=1;strokeColor=none;fillColor=none;" vertex="1" parent="1">
          <mxGeometry x="115" y="38" width="110" height="30" as="geometry" />
        </mxCell>
        <mxCell id="oyJoT-U0twaeRUUnq7s7-6" value="&lt;b&gt;&lt;u&gt;Serveur&lt;/u&gt;&lt;/b&gt;" style="text;html=1;align=center;verticalAlign=middle;resizable=0;points=[];autosize=1;strokeColor=none;fillColor=none;" vertex="1" parent="1">
          <mxGeometry x="515" y="38" width="70" height="30" as="geometry" />
        </mxCell>
        <mxCell id="AZfDPromkNyXwUC376XK-1" value="Ajouter fichier ?" style="strokeWidth=2;html=1;shape=mxgraph.flowchart.decision;whiteSpace=wrap;" vertex="1" parent="1">
          <mxGeometry x="120" y="160" width="100" height="100" as="geometry" />
        </mxCell>
        <mxCell id="AZfDPromkNyXwUC376XK-2" value="" style="endArrow=open;html=1;rounded=0;entryX=0.5;entryY=0;entryDx=0;entryDy=0;entryPerimeter=0;exitX=0.5;exitY=1;exitDx=0;exitDy=0;endFill=0;" edge="1" parent="1" source="oyJoT-U0twaeRUUnq7s7-1" target="AZfDPromkNyXwUC376XK-1">
          <mxGeometry width="50" height="50" relative="1" as="geometry">
            <mxPoint x="390" y="200" as="sourcePoint" />
            <mxPoint x="440" y="150" as="targetPoint" />
          </mxGeometry>
        </mxCell>
        <mxCell id="oyJoT-U0twaeRUUnq7s7-1" value="" style="ellipse;html=1;shape=startState;fillColor=#000000;strokeColor=#ff0000;" vertex="1" parent="1">
          <mxGeometry x="155" y="80" width="30" height="30" as="geometry" />
        </mxCell>
        <mxCell id="Z9rHl6k3fX2axZqsGvY_-1" value="Ajouter un fichier par glissÃ©/deposÃ©" style="rounded=1;whiteSpace=wrap;html=1;absoluteArcSize=1;arcSize=14;strokeWidth=2;" vertex="1" parent="1">
          <mxGeometry x="185" y="305" width="160" height="40" as="geometry" />
        </mxCell>
        <mxCell id="nwVC_tB1hORCYrNIg1vf-4" value="[oui]" style="text;html=1;strokeColor=none;fillColor=none;align=center;verticalAlign=middle;whiteSpace=wrap;rounded=0;" vertex="1" parent="1">
          <mxGeometry x="200" y="220" width="65" height="30" as="geometry" />
        </mxCell>
        <mxCell id="Z9rHl6k3fX2axZqsGvY_-2" value="" style="endArrow=open;html=1;rounded=0;endFill=0;exitX=0.77;exitY=0.78;exitDx=0;exitDy=0;exitPerimeter=0;" edge="1" parent="1" source="AZfDPromkNyXwUC376XK-1" target="Z9rHl6k3fX2axZqsGvY_-1">
          <mxGeometry width="50" height="50" relative="1" as="geometry">
            <mxPoint x="140" y="250" as="sourcePoint" />
            <mxPoint x="140" y="300" as="targetPoint" />
          </mxGeometry>
        </mxCell>
        <mxCell id="nwVC_tB1hORCYrNIg1vf-5" value="[non]" style="text;html=1;align=center;verticalAlign=middle;resizable=0;points=[];autosize=1;strokeColor=none;fillColor=none;" vertex="1" parent="1">
          <mxGeometry x="80" y="170" width="50" height="30" as="geometry" />
        </mxCell>
        <mxCell id="Z9rHl6k3fX2axZqsGvY_-3" value="Fichier valide ?" style="strokeWidth=2;html=1;shape=mxgraph.flowchart.decision;whiteSpace=wrap;" vertex="1" parent="1">
          <mxGeometry x="470" y="280" width="100" height="100" as="geometry" />
        </mxCell>
        <mxCell id="Z9rHl6k3fX2axZqsGvY_-5" value="Affiche un message d&#39;erreur" style="rounded=1;whiteSpace=wrap;html=1;absoluteArcSize=1;arcSize=14;strokeWidth=2;" vertex="1" parent="1">
          <mxGeometry x="440" y="190" width="160" height="40" as="geometry" />
        </mxCell>
        <mxCell id="nwVC_tB1hORCYrNIg1vf-7" value="" style="endArrow=openThin;html=1;rounded=0;entryX=0.5;entryY=0;entryDx=0;entryDy=0;entryPerimeter=0;endFill=0;" edge="1" parent="1" target="nwVC_tB1hORCYrNIg1vf-8">
          <mxGeometry width="50" height="50" relative="1" as="geometry">
            <mxPoint x="40" y="210" as="sourcePoint" />
            <mxPoint x="40" y="420" as="targetPoint" />
          </mxGeometry>
        </mxCell>
        <mxCell id="Z9rHl6k3fX2axZqsGvY_-6" value="" style="endArrow=open;html=1;rounded=0;endFill=0;" edge="1" parent="1" source="Z9rHl6k3fX2axZqsGvY_-3" target="Z9rHl6k3fX2axZqsGvY_-5">
          <mxGeometry width="50" height="50" relative="1" as="geometry">
            <mxPoint x="260" y="340" as="sourcePoint" />
            <mxPoint x="480" y="340" as="targetPoint" />
          </mxGeometry>
        </mxCell>
        <mxCell id="nwVC_tB1hORCYrNIg1vf-8" value="Mise a jour fichier" style="strokeWidth=2;html=1;shape=mxgraph.flowchart.decision;whiteSpace=wrap;" vertex="1" parent="1">
          <mxGeometry x="-10" y="530" width="100" height="100" as="geometry" />
        </mxCell>
        <mxCell id="Z9rHl6k3fX2axZqsGvY_-9" value="Affiche le preview" style="rounded=1;whiteSpace=wrap;html=1;absoluteArcSize=1;arcSize=14;strokeWidth=2;" vertex="1" parent="1">
          <mxGeometry x="440" y="420" width="160" height="40" as="geometry" />
        </mxCell>
        <mxCell id="Z9rHl6k3fX2axZqsGvY_-7" value="" style="endArrow=open;html=1;rounded=0;endFill=0;" edge="1" parent="1" source="Z9rHl6k3fX2axZqsGvY_-5" target="AZfDPromkNyXwUC376XK-1">
          <mxGeometry width="50" height="50" relative="1" as="geometry">
            <mxPoint x="270" y="350" as="sourcePoint" />
            <mxPoint x="490" y="350" as="targetPoint" />
          </mxGeometry>
        </mxCell>
        <mxCell id="nwVC_tB1hORCYrNIg1vf-6" value="" style="endArrow=none;html=1;rounded=0;entryX=0;entryY=0.5;entryDx=0;entryDy=0;entryPerimeter=0;" edge="1" parent="1" target="AZfDPromkNyXwUC376XK-1">
          <mxGeometry width="50" height="50" relative="1" as="geometry">
            <mxPoint x="40" y="210" as="sourcePoint" />
            <mxPoint x="90" y="200" as="targetPoint" />
          </mxGeometry>
        </mxCell>
        <mxCell id="Z9rHl6k3fX2axZqsGvY_-8" value="[non]" style="text;html=1;align=center;verticalAlign=middle;resizable=0;points=[];autosize=1;strokeColor=none;fillColor=none;" vertex="1" parent="1">
          <mxGeometry x="520" y="250" width="50" height="30" as="geometry" />
        </mxCell>
        <mxCell id="Z9rHl6k3fX2axZqsGvY_-4" value="" style="endArrow=open;html=1;rounded=0;endFill=0;" edge="1" parent="1" source="Z9rHl6k3fX2axZqsGvY_-1" target="Z9rHl6k3fX2axZqsGvY_-3">
          <mxGeometry width="50" height="50" relative="1" as="geometry">
            <mxPoint x="180" y="270" as="sourcePoint" />
            <mxPoint x="180" y="320" as="targetPoint" />
          </mxGeometry>
        </mxCell>
        <mxCell id="Z9rHl6k3fX2axZqsGvY_-10" value="" style="endArrow=open;html=1;rounded=0;endFill=0;" edge="1" parent="1" source="Z9rHl6k3fX2axZqsGvY_-3" target="Z9rHl6k3fX2axZqsGvY_-9">
          <mxGeometry width="50" height="50" relative="1" as="geometry">
            <mxPoint x="260" y="340" as="sourcePoint" />
            <mxPoint x="480" y="340" as="targetPoint" />
          </mxGeometry>
        </mxCell>
        <mxCell id="nwVC_tB1hORCYrNIg1vf-10" value="" style="endArrow=open;html=1;rounded=0;exitX=0.5;exitY=1;exitDx=0;exitDy=0;exitPerimeter=0;entryX=0.5;entryY=0;entryDx=0;entryDy=0;entryPerimeter=0;endFill=0;" edge="1" parent="1" source="nwVC_tB1hORCYrNIg1vf-8" target="nwVC_tB1hORCYrNIg1vf-9">
          <mxGeometry width="50" height="50" relative="1" as="geometry">
            <mxPoint y="620" as="sourcePoint" />
            <mxPoint x="50" y="570" as="targetPoint" />
            <Array as="points" />
          </mxGeometry>
        </mxCell>
        <mxCell id="t14yzToBP1978d9KxzuG-2" value="Ajouter un fichier par glissÃ©/deposÃ©" style="rounded=1;whiteSpace=wrap;html=1;absoluteArcSize=1;arcSize=14;strokeWidth=2;" vertex="1" parent="1">
          <mxGeometry x="1310" y="160" width="160" height="40" as="geometry" />
        </mxCell>
        <mxCell id="Z9rHl6k3fX2axZqsGvY_-11" value="[oui]" style="text;html=1;strokeColor=none;fillColor=none;align=center;verticalAlign=middle;whiteSpace=wrap;rounded=0;" vertex="1" parent="1">
          <mxGeometry x="510" y="370" width="60" height="30" as="geometry" />
        </mxCell>
        <mxCell id="nwVC_tB1hORCYrNIg1vf-9" value="&lt;div&gt;dÃ©classer &lt;br&gt;&lt;/div&gt;&lt;div&gt;fichier&lt;br&gt;&lt;/div&gt;" style="strokeWidth=2;html=1;shape=mxgraph.flowchart.decision;whiteSpace=wrap;" vertex="1" parent="1">
          <mxGeometry x="-10" y="738" width="100" height="100" as="geometry" />
        </mxCell>
        <mxCell id="nwVC_tB1hORCYrNIg1vf-11" value="" style="endArrow=none;html=1;rounded=0;entryX=0;entryY=0.5;entryDx=0;entryDy=0;entryPerimeter=0;" edge="1" parent="1" target="nwVC_tB1hORCYrNIg1vf-9">
          <mxGeometry width="50" height="50" relative="1" as="geometry">
            <mxPoint x="-160" y="790" as="sourcePoint" />
            <mxPoint x="-100" y="695" as="targetPoint" />
          </mxGeometry>
        </mxCell>
        <mxCell id="nwVC_tB1hORCYrNIg1vf-12" value="" style="endArrow=none;html=1;rounded=0;" edge="1" parent="1">
          <mxGeometry width="50" height="50" relative="1" as="geometry">
            <mxPoint x="-160" y="790" as="sourcePoint" />
            <mxPoint x="-160" y="160" as="targetPoint" />
          </mxGeometry>
        </mxCell>
        <mxCell id="nwVC_tB1hORCYrNIg1vf-13" value="" style="endArrow=open;html=1;rounded=0;endFill=0;" edge="1" parent="1">
          <mxGeometry width="50" height="50" relative="1" as="geometry">
            <mxPoint x="-160" y="160" as="sourcePoint" />
            <mxPoint x="170" y="160" as="targetPoint" />
          </mxGeometry>
        </mxCell>
        <mxCell id="Z9rHl6k3fX2axZqsGvY_-12" value="Affiche un message de validation " style="rounded=1;whiteSpace=wrap;html=1;absoluteArcSize=1;arcSize=14;strokeWidth=2;" vertex="1" parent="1">
          <mxGeometry x="440" y="500" width="160" height="40" as="geometry" />
        </mxCell>
        <mxCell id="Z9rHl6k3fX2axZqsGvY_-13" value="" style="endArrow=open;html=1;rounded=0;endFill=0;" edge="1" parent="1" source="Z9rHl6k3fX2axZqsGvY_-9" target="Z9rHl6k3fX2axZqsGvY_-12">
          <mxGeometry width="50" height="50" relative="1" as="geometry">
            <mxPoint x="530" y="390" as="sourcePoint" />
            <mxPoint x="530" y="430" as="targetPoint" />
          </mxGeometry>
        </mxCell>
        <mxCell id="nwVC_tB1hORCYrNIg1vf-14" value="[non]" style="text;html=1;strokeColor=none;fillColor=none;align=center;verticalAlign=middle;whiteSpace=wrap;rounded=0;" vertex="1" parent="1">
          <mxGeometry x="-20" y="630" width="60" height="30" as="geometry" />
        </mxCell>
        <mxCell id="nwVC_tB1hORCYrNIg1vf-15" value="[non]" style="text;html=1;strokeColor=none;fillColor=none;align=center;verticalAlign=middle;whiteSpace=wrap;rounded=0;" vertex="1" parent="1">
          <mxGeometry x="-50" y="760" width="60" height="30" as="geometry" />
        </mxCell>
        <mxCell id="2nEw5uk5or-OxSPqvEyF-2" style="edgeStyle=orthogonalEdgeStyle;rounded=0;orthogonalLoop=1;jettySize=auto;html=1;entryX=0.23;entryY=0.75;entryDx=0;entryDy=0;entryPerimeter=0;endArrow=open;endFill=0;" edge="1" parent="1" source="2nEw5uk5or-OxSPqvEyF-1" target="AZfDPromkNyXwUC376XK-1">
          <mxGeometry relative="1" as="geometry">
            <Array as="points">
              <mxPoint x="120" y="425" />
              <mxPoint x="120" y="235" />
            </Array>
          </mxGeometry>
        </mxCell>
        <mxCell id="2nEw5uk5or-OxSPqvEyF-4" style="edgeStyle=orthogonalEdgeStyle;rounded=0;orthogonalLoop=1;jettySize=auto;html=1;exitX=0.5;exitY=1;exitDx=0;exitDy=0;exitPerimeter=0;entryX=0;entryY=0.5;entryDx=0;entryDy=0;endArrow=open;endFill=0;" edge="1" parent="1" source="2nEw5uk5or-OxSPqvEyF-1" target="Z9rHl6k3fX2axZqsGvY_-14">
          <mxGeometry relative="1" as="geometry" />
        </mxCell>
        <mxCell id="2nEw5uk5or-OxSPqvEyF-1" value="Valide?" style="strokeWidth=2;html=1;shape=mxgraph.flowchart.decision;whiteSpace=wrap;" vertex="1" parent="1">
          <mxGeometry x="130" y="400" width="65" height="50" as="geometry" />
        </mxCell>
        <mxCell id="2nEw5uk5or-OxSPqvEyF-7" style="edgeStyle=orthogonalEdgeStyle;rounded=0;orthogonalLoop=1;jettySize=auto;html=1;entryX=0;entryY=0.5;entryDx=0;entryDy=0;" edge="1" parent="1" source="Z9rHl6k3fX2axZqsGvY_-14" target="BuXKrMSGrwxSzXBBB4VP-2">
          <mxGeometry relative="1" as="geometry" />
        </mxCell>
        <mxCell id="Z9rHl6k3fX2axZqsGvY_-14" value="Enregistre le fichier" style="rounded=1;whiteSpace=wrap;html=1;absoluteArcSize=1;arcSize=14;strokeWidth=2;" vertex="1" parent="1">
          <mxGeometry x="440" y="565" width="160" height="40" as="geometry" />
        </mxCell>
        <mxCell id="BuXKrMSGrwxSzXBBB4VP-1" value="" style="ellipse;html=1;shape=endState;fillColor=#000000;strokeColor=#ff0000;" vertex="1" parent="1">
          <mxGeometry x="660" y="925" width="30" height="30" as="geometry" />
        </mxCell>
        <mxCell id="BuXKrMSGrwxSzXBBB4VP-2" value="" style="ellipse;html=1;shape=endState;fillColor=#000000;strokeColor=#ff0000;" vertex="1" parent="1">
          <mxGeometry x="720" y="570" width="30" height="30" as="geometry" />
        </mxCell>
        <mxCell id="BuXKrMSGrwxSzXBBB4VP-3" value="" style="ellipse;html=1;shape=endState;fillColor=#000000;strokeColor=#ff0000;" vertex="1" parent="1">
          <mxGeometry x="890" y="805" width="30" height="30" as="geometry" />
        </mxCell>
        <mxCell id="2nEw5uk5or-OxSPqvEyF-3" style="edgeStyle=orthogonalEdgeStyle;rounded=0;orthogonalLoop=1;jettySize=auto;html=1;entryX=1;entryY=0.5;entryDx=0;entryDy=0;entryPerimeter=0;endArrow=open;endFill=0;" edge="1" parent="1" source="Z9rHl6k3fX2axZqsGvY_-12" target="2nEw5uk5or-OxSPqvEyF-1">
          <mxGeometry relative="1" as="geometry" />
        </mxCell>
        <mxCell id="Z9rHl6k3fX2axZqsGvY_-15" value="[non]" style="text;html=1;align=center;verticalAlign=middle;resizable=0;points=[];autosize=1;strokeColor=none;fillColor=none;" vertex="1" parent="1">
          <mxGeometry x="115" y="380" width="50" height="30" as="geometry" />
        </mxCell>
        <mxCell id="2nEw5uk5or-OxSPqvEyF-5" value="[oui]" style="text;html=1;strokeColor=none;fillColor=none;align=center;verticalAlign=middle;whiteSpace=wrap;rounded=0;" vertex="1" parent="1">
          <mxGeometry x="150" y="450" width="65" height="30" as="geometry" />
        </mxCell>
        <mxCell id="2nEw5uk5or-OxSPqvEyF-8" value="&lt;div&gt;Afficher la page&lt;/div&gt;&lt;div&gt;modification&lt;/div&gt;" style="rounded=1;whiteSpace=wrap;html=1;absoluteArcSize=1;arcSize=14;strokeWidth=2;" vertex="1" parent="1">
          <mxGeometry x="440" y="630" width="160" height="40" as="geometry" />
        </mxCell>
        <mxCell id="YD7kYOiyJrW2HJuWKPPi-1" value="Recherche et sÃ©lection d&#39;un fichier&amp;nbsp; (voire le diagramme)" style="rounded=1;whiteSpace=wrap;html=1;absoluteArcSize=1;arcSize=14;strokeWidth=2;" vertex="1" parent="1">
          <mxGeometry x="102.5" y="630" width="160" height="40" as="geometry" />
        </mxCell>
        <mxCell id="2nEw5uk5or-OxSPqvEyF-11" style="edgeStyle=orthogonalEdgeStyle;rounded=0;orthogonalLoop=1;jettySize=auto;html=1;exitX=0.5;exitY=1;exitDx=0;exitDy=0;endArrow=open;endFill=0;" edge="1" parent="1" source="2nEw5uk5or-OxSPqvEyF-9" target="2nEw5uk5or-OxSPqvEyF-10">
          <mxGeometry relative="1" as="geometry" />
        </mxCell>
        <mxCell id="2nEw5uk5or-OxSPqvEyF-9" value="&lt;div&gt;Afficher la&lt;/div&gt;&lt;div&gt;preview&lt;br&gt;&lt;/div&gt;" style="rounded=1;whiteSpace=wrap;html=1;absoluteArcSize=1;arcSize=14;strokeWidth=2;" vertex="1" parent="1">
          <mxGeometry x="440" y="690" width="160" height="40" as="geometry" />
        </mxCell>
        <mxCell id="BuXKrMSGrwxSzXBBB4VP-6" value="[non]" style="text;html=1;align=center;verticalAlign=middle;resizable=0;points=[];autosize=1;strokeColor=none;fillColor=none;" vertex="1" parent="1">
          <mxGeometry x="160" y="753" width="50" height="30" as="geometry" />
        </mxCell>
        <mxCell id="BuXKrMSGrwxSzXBBB4VP-5" value="[oui]" style="text;html=1;align=center;verticalAlign=middle;resizable=0;points=[];autosize=1;strokeColor=none;fillColor=none;" vertex="1" parent="1">
          <mxGeometry x="70" y="585" width="50" height="30" as="geometry" />
        </mxCell>
        <mxCell id="2nEw5uk5or-OxSPqvEyF-12" value="Enregistre le fichier" style="rounded=1;whiteSpace=wrap;html=1;absoluteArcSize=1;arcSize=14;strokeWidth=2;" vertex="1" parent="1">
          <mxGeometry x="440" y="800" width="160" height="40" as="geometry" />
        </mxCell>
        <mxCell id="JNaDJvcLoE_YvPQ3TGb9-1" value="" style="endArrow=open;html=1;rounded=0;endFill=0;exitX=0.81;exitY=0.77;exitDx=0;exitDy=0;exitPerimeter=0;" edge="1" parent="1" source="nwVC_tB1hORCYrNIg1vf-8" target="YD7kYOiyJrW2HJuWKPPi-1">
          <mxGeometry width="50" height="50" relative="1" as="geometry">
            <mxPoint x="50" y="640" as="sourcePoint" />
            <mxPoint x="50" y="750" as="targetPoint" />
            <Array as="points" />
          </mxGeometry>
        </mxCell>
        <mxCell id="2nEw5uk5or-OxSPqvEyF-10" value="&lt;div&gt;Afficher le message de validation&lt;br&gt;&lt;/div&gt;" style="rounded=1;whiteSpace=wrap;html=1;absoluteArcSize=1;arcSize=14;strokeWidth=2;" vertex="1" parent="1">
          <mxGeometry x="440" y="743" width="160" height="40" as="geometry" />
        </mxCell>
        <mxCell id="2nEw5uk5or-OxSPqvEyF-14" style="edgeStyle=orthogonalEdgeStyle;rounded=0;orthogonalLoop=1;jettySize=auto;html=1;exitX=1;exitY=0.5;exitDx=0;exitDy=0;entryX=0;entryY=0.5;entryDx=0;entryDy=0;endArrow=open;endFill=0;" edge="1" parent="1" source="2nEw5uk5or-OxSPqvEyF-12" target="2nEw5uk5or-OxSPqvEyF-13">
          <mxGeometry relative="1" as="geometry" />
        </mxCell>
        <mxCell id="2nEw5uk5or-OxSPqvEyF-13" value="Changer l&#39;Ã©tat de l&#39;ancien fichier" style="rounded=1;whiteSpace=wrap;html=1;absoluteArcSize=1;arcSize=14;strokeWidth=2;" vertex="1" parent="1">
          <mxGeometry x="630" y="800" width="160" height="40" as="geometry" />
        </mxCell>
        <mxCell id="gAijz_QNpS5xthN1iygo-3" value="" style="endArrow=classic;html=1;rounded=0;exitX=1;exitY=0.5;exitDx=0;exitDy=0;entryX=0;entryY=0.5;entryDx=0;entryDy=0;" edge="1" parent="1" source="2nEw5uk5or-OxSPqvEyF-13" target="BuXKrMSGrwxSzXBBB4VP-3">
          <mxGeometry width="50" height="50" relative="1" as="geometry">
            <mxPoint x="790" y="900" as="sourcePoint" />
            <mxPoint x="857" y="850" as="targetPoint" />
          </mxGeometry>
        </mxCell>
        <mxCell id="JNaDJvcLoE_YvPQ3TGb9-2" value="" style="endArrow=open;html=1;rounded=0;endFill=0;" edge="1" parent="1" source="YD7kYOiyJrW2HJuWKPPi-1" target="2nEw5uk5or-OxSPqvEyF-8">
          <mxGeometry width="50" height="50" relative="1" as="geometry">
            <mxPoint x="81" y="617" as="sourcePoint" />
            <mxPoint x="149" y="650" as="targetPoint" />
            <Array as="points" />
          </mxGeometry>
        </mxCell>
        <mxCell id="JNaDJvcLoE_YvPQ3TGb9-3" value="Ajoute le nouveau fichier " style="rounded=1;whiteSpace=wrap;html=1;absoluteArcSize=1;arcSize=14;strokeWidth=2;" vertex="1" parent="1">
          <mxGeometry x="105" y="680" width="160" height="40" as="geometry" />
        </mxCell>
        <mxCell id="2nEw5uk5or-OxSPqvEyF-15" value="&lt;div&gt;Afficher le message de&lt;/div&gt;&lt;div&gt;validation&lt;br&gt;&lt;/div&gt;" style="rounded=1;whiteSpace=wrap;html=1;absoluteArcSize=1;arcSize=14;strokeWidth=2;" vertex="1" parent="1">
          <mxGeometry x="440" y="860" width="160" height="40" as="geometry" />
        </mxCell>
        <mxCell id="JNaDJvcLoE_YvPQ3TGb9-4" value="" style="endArrow=open;html=1;rounded=0;endFill=0;" edge="1" parent="1" source="2nEw5uk5or-OxSPqvEyF-8" target="JNaDJvcLoE_YvPQ3TGb9-3">
          <mxGeometry width="50" height="50" relative="1" as="geometry">
            <mxPoint x="273" y="660" as="sourcePoint" />
            <mxPoint x="450" y="660" as="targetPoint" />
            <Array as="points" />
          </mxGeometry>
        </mxCell>
        <mxCell id="JNaDJvcLoE_YvPQ3TGb9-5" value="" style="endArrow=open;html=1;rounded=0;endFill=0;" edge="1" parent="1" source="JNaDJvcLoE_YvPQ3TGb9-3" target="2nEw5uk5or-OxSPqvEyF-9">
          <mxGeometry width="50" height="50" relative="1" as="geometry">
            <mxPoint x="450" y="672" as="sourcePoint" />
            <mxPoint x="275" y="698" as="targetPoint" />
            <Array as="points" />
          </mxGeometry>
        </mxCell>
        <mxCell id="2nEw5uk5or-OxSPqvEyF-17" value="changer lâÃ©tat du fichier" style="rounded=1;whiteSpace=wrap;html=1;absoluteArcSize=1;arcSize=14;strokeWidth=2;" vertex="1" parent="1">
          <mxGeometry x="440" y="920" width="160" height="40" as="geometry" />
        </mxCell>
        <mxCell id="JNaDJvcLoE_YvPQ3TGb9-6" value="Valide?" style="strokeWidth=2;html=1;shape=mxgraph.flowchart.decision;whiteSpace=wrap;" vertex="1" parent="1">
          <mxGeometry x="210" y="738" width="65" height="50" as="geometry" />
        </mxCell>
        <mxCell id="JNaDJvcLoE_YvPQ3TGb9-7" value="" style="endArrow=open;html=1;rounded=0;endFill=0;" edge="1" parent="1" source="2nEw5uk5or-OxSPqvEyF-10" target="JNaDJvcLoE_YvPQ3TGb9-6">
          <mxGeometry width="50" height="50" relative="1" as="geometry">
            <mxPoint x="275" y="712" as="sourcePoint" />
            <mxPoint x="450" y="718" as="targetPoint" />
            <Array as="points" />
          </mxGeometry>
        </mxCell>
        <mxCell id="JNaDJvcLoE_YvPQ3TGb9-8" value="" style="endArrow=open;html=1;rounded=0;endFill=0;exitX=0.5;exitY=1;exitDx=0;exitDy=0;exitPerimeter=0;entryX=0;entryY=0.5;entryDx=0;entryDy=0;" edge="1" parent="1" source="JNaDJvcLoE_YvPQ3TGb9-6" target="2nEw5uk5or-OxSPqvEyF-12">
          <mxGeometry width="50" height="50" relative="1" as="geometry">
            <mxPoint x="220" y="812" as="sourcePoint" />
            <mxPoint x="280" y="835" as="targetPoint" />
            <Array as="points">
              <mxPoint x="243" y="820" />
            </Array>
          </mxGeometry>
        </mxCell>
        <mxCell id="2nEw5uk5or-OxSPqvEyF-20" style="edgeStyle=orthogonalEdgeStyle;rounded=0;orthogonalLoop=1;jettySize=auto;html=1;entryX=0;entryY=0.5;entryDx=0;entryDy=0;exitX=0.5;exitY=1;exitDx=0;exitDy=0;exitPerimeter=0;endArrow=open;endFill=0;" edge="1" parent="1" source="2nEw5uk5or-OxSPqvEyF-19" target="2nEw5uk5or-OxSPqvEyF-17">
          <mxGeometry relative="1" as="geometry">
            <Array as="points">
              <mxPoint x="300" y="940" />
              <mxPoint x="300" y="940" />
            </Array>
          </mxGeometry>
        </mxCell>
        <mxCell id="2nEw5uk5or-OxSPqvEyF-19" value="Valide?" style="strokeWidth=2;html=1;shape=mxgraph.flowchart.decision;whiteSpace=wrap;" vertex="1" parent="1">
          <mxGeometry x="220" y="890" width="65" height="50" as="geometry" />
        </mxCell>
        <mxCell id="2nEw5uk5or-OxSPqvEyF-18" style="edgeStyle=orthogonalEdgeStyle;rounded=0;orthogonalLoop=1;jettySize=auto;html=1;entryX=0;entryY=0.5;entryDx=0;entryDy=0;" edge="1" parent="1" source="2nEw5uk5or-OxSPqvEyF-17" target="BuXKrMSGrwxSzXBBB4VP-1">
          <mxGeometry relative="1" as="geometry" />
        </mxCell>
        <mxCell id="JNaDJvcLoE_YvPQ3TGb9-9" value="[oui]" style="text;html=1;align=center;verticalAlign=middle;resizable=0;points=[];autosize=1;strokeColor=none;fillColor=none;" vertex="1" parent="1">
          <mxGeometry x="240" y="783" width="50" height="30" as="geometry" />
        </mxCell>
        <mxCell id="2nEw5uk5or-OxSPqvEyF-22" style="edgeStyle=orthogonalEdgeStyle;rounded=0;orthogonalLoop=1;jettySize=auto;html=1;entryX=1;entryY=0.5;entryDx=0;entryDy=0;entryPerimeter=0;endArrow=open;endFill=0;" edge="1" parent="1" source="2nEw5uk5or-OxSPqvEyF-15" target="2nEw5uk5or-OxSPqvEyF-19">
          <mxGeometry relative="1" as="geometry" />
        </mxCell>
        <mxCell id="2nEw5uk5or-OxSPqvEyF-23" value="[oui]" style="text;html=1;align=center;verticalAlign=middle;resizable=0;points=[];autosize=1;strokeColor=none;fillColor=none;" vertex="1" parent="1">
          <mxGeometry x="250" y="940" width="50" height="30" as="geometry" />
        </mxCell>
        <mxCell id="2nEw5uk5or-OxSPqvEyF-24" value="[non]" style="text;html=1;strokeColor=none;fillColor=none;align=center;verticalAlign=middle;whiteSpace=wrap;rounded=0;" vertex="1" parent="1">
          <mxGeometry x="165" y="870" width="60" height="30" as="geometry" />
        </mxCell>
        <mxCell id="JNaDJvcLoE_YvPQ3TGb9-10" value="" style="endArrow=open;html=1;rounded=0;endFill=0;" edge="1" parent="1" source="JNaDJvcLoE_YvPQ3TGb9-6" target="nwVC_tB1hORCYrNIg1vf-8">
          <mxGeometry width="50" height="50" relative="1" as="geometry">
            <mxPoint x="81" y="617" as="sourcePoint" />
            <mxPoint x="141" y="640" as="targetPoint" />
            <Array as="points">
              <mxPoint x="80" y="730" />
            </Array>
          </mxGeometry>
        </mxCell>
        <mxCell id="2nEw5uk5or-OxSPqvEyF-26" style="edgeStyle=orthogonalEdgeStyle;rounded=0;orthogonalLoop=1;jettySize=auto;html=1;entryX=0.5;entryY=1;entryDx=0;entryDy=0;entryPerimeter=0;endArrow=open;endFill=0;" edge="1" parent="1" source="2nEw5uk5or-OxSPqvEyF-19" target="nwVC_tB1hORCYrNIg1vf-9">
          <mxGeometry relative="1" as="geometry" />
        </mxCell>
        <mxCell id="JNaDJvcLoE_YvPQ3TGb9-11" value="Recherche et sÃ©lection d&#39;un fichier&amp;nbsp; (voire le diagramme)" style="rounded=1;whiteSpace=wrap;html=1;absoluteArcSize=1;arcSize=14;strokeWidth=2;" vertex="1" parent="1">
          <mxGeometry x="105" y="830" width="160" height="40" as="geometry" />
        </mxCell>
        <mxCell id="JNaDJvcLoE_YvPQ3TGb9-12" value="" style="endArrow=open;html=1;rounded=0;endFill=0;" edge="1" parent="1" source="nwVC_tB1hORCYrNIg1vf-9" target="JNaDJvcLoE_YvPQ3TGb9-11">
          <mxGeometry width="50" height="50" relative="1" as="geometry">
            <mxPoint x="50" y="640" as="sourcePoint" />
            <mxPoint x="50" y="748" as="targetPoint" />
            <Array as="points" />
          </mxGeometry>
        </mxCell>
        <mxCell id="JNaDJvcLoE_YvPQ3TGb9-13" value="" style="endArrow=open;html=1;rounded=0;endFill=0;" edge="1" parent="1" source="JNaDJvcLoE_YvPQ3TGb9-11" target="2nEw5uk5or-OxSPqvEyF-15">
          <mxGeometry width="50" height="50" relative="1" as="geometry">
            <mxPoint x="100" y="819" as="sourcePoint" />
            <mxPoint x="148" y="840" as="targetPoint" />
            <Array as="points" />
          </mxGeometry>
        </mxCell>
        <mxCell id="JNaDJvcLoE_YvPQ3TGb9-14" value="[oui]" style="text;html=1;align=center;verticalAlign=middle;resizable=0;points=[];autosize=1;strokeColor=none;fillColor=none;" vertex="1" parent="1">
          <mxGeometry x="90" y="783" width="50" height="30" as="geometry" />
        </mxCell>
      </root>
    </mxGraphModel>
  </diagram>
</mxfile>
